<?xml version="1.0" standalone="no"?>
<!DOCTYPE svg PUBLIC "-//W3C//DTD SVG 20010904//EN"
 "http://www.w3.org/TR/2001/REC-SVG-20010904/DTD/svg10.dtd">
<svg version="1.0" xmlns="http://www.w3.org/2000/svg"
 width="1500.000000pt" height="1620.000000pt" viewBox="0 0 1500.000000 1620.000000"
 preserveAspectRatio="xMidYMid meet">
<metadata>
Created by potrace 1.13, written by Peter Selinger 2001-2015
</metadata>
<g transform="translate(0.000000,1620.000000) scale(0.100000,-0.100000)"
fill="#000000" stroke="none">
<path d="M9245 15493 c-63 -28 -86 -43 -80 -53 3 -5 -2 -13 -11 -18 -15 -8
-15 -10 0 -15 10 -4 15 -3 11 3 -3 6 4 10 16 10 21 0 19 -5 -21 -47 -25 -26
-71 -73 -102 -104 -32 -30 -58 -62 -58 -70 1 -10 4 -9 15 5 8 10 19 15 26 10
9 -5 10 -2 6 9 -4 10 -2 14 6 11 7 -2 21 9 32 26 11 16 23 30 28 30 4 0 7 5 7
10 0 10 68 75 78 75 3 0 6 -10 7 -22 1 -12 -1 -21 -5 -20 -4 1 -42 -38 -85
-88 -43 -49 -110 -126 -150 -170 -40 -44 -84 -93 -96 -108 -13 -16 -49 -56
-79 -90 -31 -34 -72 -83 -93 -109 -20 -25 -55 -66 -76 -90 -45 -48 -43 -46
-91 -108 -56 -72 -62 -77 -54 -44 3 16 16 39 29 50 12 12 27 36 35 53 7 17 18
31 24 31 12 0 80 129 72 137 -10 10 -106 -95 -235 -257 -71 -89 -103 -128
-126 -154 -5 -6 -30 -38 -55 -71 -25 -33 -49 -65 -55 -71 -9 -10 -22 -27 -69
-89 -9 -12 -15 -15 -16 -7 0 7 27 56 60 109 33 52 60 97 60 100 0 4 36 51 85
110 24 30 32 41 65 93 19 30 40 61 47 68 7 7 13 21 13 30 0 15 -43 -28 -115
-114 -16 -20 -36 -43 -42 -50 -7 -7 -13 -17 -13 -22 0 -6 -4 -12 -8 -14 -4 -1
-23 -23 -42 -48 -19 -24 -52 -60 -72 -80 -21 -21 -38 -42 -38 -48 0 -7 -4 -12
-10 -12 -19 0 -10 33 26 91 19 33 41 65 48 72 6 6 27 35 46 62 19 28 38 52 43
53 4 2 7 10 7 17 0 7 7 16 16 19 8 3 13 10 10 15 -4 5 1 16 9 24 8 9 15 19 15
24 0 4 -11 -4 -25 -19 -14 -15 -25 -30 -25 -33 0 -10 -69 -75 -80 -75 -5 0
-10 -4 -10 -9 0 -6 -10 -21 -22 -35 -13 -14 -39 -46 -58 -71 -19 -25 -41 -45
-47 -45 -7 0 -13 -9 -13 -21 0 -11 -4 -18 -10 -14 -5 3 -17 -7 -26 -22 -24
-38 -64 -77 -64 -62 0 13 56 105 77 127 7 7 13 20 13 28 0 8 4 14 8 14 5 0 18
17 30 38 12 20 33 51 48 67 15 17 33 44 40 62 7 17 19 33 26 35 10 4 10 9 -2
24 -14 17 -14 18 2 6 22 -17 41 -6 33 19 -5 14 -1 19 14 19 15 0 19 4 14 17
-5 12 -2 15 10 10 14 -5 16 -2 11 18 -5 19 5 34 52 82 36 36 59 53 62 45 3
-10 8 -9 23 4 10 9 19 22 19 27 0 6 -9 2 -20 -8 -11 -10 -20 -13 -20 -7 0 6
15 23 33 37 17 15 26 24 18 19 -10 -5 -12 -3 -7 5 5 7 16 9 28 5 17 -5 20 -3
14 11 -8 23 31 67 54 60 19 -6 75 48 66 63 -3 6 3 13 14 17 11 3 25 15 31 26
6 12 17 18 24 15 19 -7 30 13 16 27 -8 8 -21 2 -49 -24 -20 -19 -64 -57 -97
-84 -227 -185 -532 -541 -750 -876 -154 -235 -162 -249 -338 -544 -10 -16 -20
-38 -23 -47 -4 -10 -10 -18 -15 -18 -5 0 -9 -4 -9 -10 0 -5 -19 -40 -41 -77
-23 -38 -47 -81 -54 -96 l-11 -28 -27 21 c-32 25 -34 22 -7 -10 11 -13 20 -28
19 -34 0 -6 -3 -6 -6 2 -8 21 -20 13 -16 -11 3 -15 -5 -38 -21 -61 -14 -21
-28 -46 -31 -57 -4 -10 -13 -19 -21 -19 -8 0 -14 -4 -14 -10 0 -5 -6 -10 -13
-10 -19 0 -48 -36 -81 -100 -16 -30 -35 -62 -42 -70 -7 -9 -20 -31 -29 -50
-11 -24 -14 -27 -10 -10 18 81 18 78 0 48 -9 -16 -22 -28 -30 -28 -19 0 -19
-5 10 76 31 86 31 96 0 60 -27 -32 -43 -30 -26 2 6 12 11 32 11 46 0 14 5 26
11 26 6 0 9 7 5 15 -6 16 9 59 30 85 6 8 19 42 29 75 10 33 24 69 32 80 7 11
13 30 13 42 0 13 4 23 10 23 5 0 7 7 4 15 -4 9 -21 -15 -46 -63 -70 -133 -77
-145 -89 -156 -14 -14 -5 19 23 84 11 25 26 60 34 78 8 18 14 37 14 41 0 11
57 133 176 379 52 107 94 197 94 202 0 5 3 10 8 12 11 5 72 131 72 148 -1 12
-4 11 -15 -4 -8 -11 -18 -17 -21 -13 -3 3 -1 12 6 19 6 7 52 79 101 161 50 81
95 147 100 147 5 0 9 6 9 14 0 8 3 16 8 18 4 2 39 46 79 98 64 85 264 298 368
391 57 51 100 99 89 99 -5 0 -31 -20 -58 -45 -26 -25 -52 -43 -56 -40 -5 3
-28 -5 -52 -16 -69 -34 -102 -48 -118 -51 -8 -2 -17 -5 -20 -8 -13 -13 -121
-51 -130 -45 -5 3 -10 0 -10 -8 0 -8 -7 -18 -16 -21 -11 -4 -15 -2 -11 8 7 18
-3 14 -101 -31 -34 -16 -59 -33 -55 -37 4 -4 0 -4 -9 -1 -16 7 -167 -65 -283
-135 -33 -19 -71 -41 -85 -48 -14 -6 -42 -23 -62 -37 -21 -14 -38 -22 -38 -18
0 5 13 17 30 28 20 13 25 22 17 27 -7 5 -1 8 15 8 20 0 26 4 22 15 -4 10 -2
13 8 10 14 -5 78 49 78 66 0 5 9 9 21 9 11 0 19 5 17 11 -2 6 -6 10 -8 9 -38
-8 -50 -15 -46 -25 3 -9 -3 -11 -17 -8 -18 4 -19 3 -7 -6 12 -9 10 -10 -12 -5
-17 3 -29 1 -35 -8 -10 -16 -53 -41 -59 -35 -3 3 10 14 28 26 39 25 96 66 120
86 9 8 32 22 50 31 17 9 57 33 88 54 30 21 78 49 105 64 28 14 57 30 65 36 17
11 207 115 263 145 56 30 26 30 -37 1 -30 -14 -58 -26 -61 -26 -9 0 -227 -109
-241 -120 -6 -6 -18 -8 -26 -5 -16 6 -77 -21 -137 -61 -19 -13 -38 -21 -43
-18 -4 3 -8 0 -8 -6 0 -7 -7 -9 -16 -6 -8 3 -12 2 -9 -4 3 -6 -1 -10 -9 -10
-25 0 -18 23 12 42 15 9 54 35 87 59 33 23 74 53 92 65 18 12 30 24 26 27 -3
3 8 9 23 13 16 4 34 11 40 15 28 22 207 104 282 129 46 15 86 31 89 34 22 22
-234 -6 -367 -40 -107 -28 -367 -152 -362 -173 1 -7 -2 -9 -8 -6 -9 6 -83 -36
-134 -76 -63 -48 -226 -193 -226 -200 0 -5 -20 -27 -44 -49 -48 -45 -211 -254
-261 -335 -17 -27 -47 -75 -67 -105 -19 -30 -65 -113 -102 -185 -37 -71 -87
-164 -113 -205 -46 -75 -67 -135 -56 -154 14 -22 13 -67 -2 -72 -8 -4 -15 -13
-15 -20 0 -8 -7 -17 -15 -20 -18 -7 -21 -114 -4 -131 8 -8 1 -22 -30 -52 -24
-23 -41 -50 -41 -63 -1 -23 -29 -83 -30 -62 0 10 -25 42 -67 87 -19 20 -28
137 -14 184 5 15 16 63 26 105 l18 77 -26 38 c-30 44 -92 113 -102 113 -6 0
43 -65 82 -106 12 -13 19 -24 16 -24 -3 0 0 -7 7 -15 27 -32 -11 -13 -50 25
-23 22 -45 38 -51 35 -5 -3 -6 0 -3 8 3 8 1 18 -5 22 -6 3 -11 1 -11 -5 0 -6
-16 3 -35 21 -19 19 -35 39 -35 47 0 7 -4 10 -10 7 -5 -3 -10 0 -10 7 -1 7
-26 33 -57 58 -30 25 -61 50 -67 55 -7 6 -25 21 -41 35 -48 41 -8 -7 60 -72
76 -72 65 -75 -18 -5 -34 30 -69 51 -77 49 -8 -3 -12 -1 -8 3 10 11 -10 35
-29 35 -21 0 -109 70 -105 84 2 6 0 8 -4 4 -4 -4 -29 8 -55 27 -27 19 -60 37
-74 41 -13 3 -22 10 -19 15 3 5 0 9 -6 9 -10 0 -200 117 -210 129 -3 4 -57 26
-120 50 -63 24 -149 56 -190 71 -41 16 -122 36 -180 44 -237 34 -275 37 -354
26 -42 -6 -84 -10 -94 -9 -9 2 -30 0 -47 -4 -16 -4 -46 -9 -65 -11 -52 -6
-309 -156 -337 -197 -12 -18 -19 -37 -16 -43 3 -6 3 -8 -1 -4 -11 10 -57 -34
-52 -49 3 -7 0 -12 -5 -10 -12 2 -160 -171 -185 -217 -9 -16 -54 -118 -101
-225 -80 -187 -85 -204 -114 -366 -16 -93 -36 -199 -43 -235 -10 -48 -13 -128
-9 -310 4 -246 9 -293 68 -685 30 -196 126 -580 239 -951 l85 -279 35 -285
c20 -157 54 -395 76 -530 22 -135 45 -308 51 -385 20 -264 1 -705 -30 -705 -3
0 -26 19 -51 43 -25 23 -54 49 -64 57 -18 14 -19 14 -6 -10 8 -14 13 -31 12
-37 -2 -7 2 -13 8 -13 6 0 9 -4 6 -9 -3 -5 9 -53 28 -106 l34 -97 -18 -66
c-38 -146 -83 -290 -107 -345 -24 -54 -35 -65 -167 -162 -95 -70 -144 -101
-152 -94 -8 6 -26 -7 -58 -40 -41 -45 -45 -53 -36 -76 6 -15 10 -46 10 -69 0
-29 7 -52 21 -70 l21 -27 -22 -52 c-12 -29 -26 -56 -30 -62 -4 -5 -13 -42 -19
-80 -11 -72 -55 -195 -74 -207 -13 -8 -27 -1 -27 13 0 6 4 8 8 5 5 -3 9 8 9
24 0 40 -3 36 -32 -49 -24 -68 -25 -75 -10 -98 17 -26 53 -43 90 -43 18 0 26
-7 31 -24 9 -39 43 -49 142 -44 l89 4 80 57 c104 72 255 223 316 314 26 40 52
75 57 78 15 9 65 87 80 125 8 19 22 50 33 69 l18 34 -30 30 c-28 29 -31 30
-38 11 -11 -28 -103 -163 -118 -172 -7 -4 -48 -39 -91 -79 -44 -40 -92 -83
-109 -98 -32 -27 -174 -124 -212 -144 -26 -13 -31 -4 -8 13 8 6 17 20 19 32 3
16 -1 20 -17 20 -28 -1 -24 32 4 52 12 8 18 21 14 31 -3 12 3 22 19 30 13 8
27 21 30 30 3 9 9 22 12 29 3 6 1 12 -5 12 -6 0 -11 -6 -11 -14 0 -11 -49 -30
-58 -22 -1 2 9 15 23 30 14 15 23 32 19 37 -3 5 -2 8 3 7 4 -2 19 8 32 21 22
22 23 25 7 37 -15 10 -22 7 -52 -24 -28 -29 -33 -32 -23 -12 7 14 56 70 110
125 54 55 124 134 155 175 32 41 62 78 67 81 5 4 6 12 2 19 -5 8 -3 11 6 8 16
-5 49 37 89 117 116 230 146 280 166 283 21 3 22 -2 29 -90 4 -51 12 -101 18
-113 5 -11 13 -27 17 -35 13 -28 35 -21 49 15 7 20 15 34 17 32 3 -2 0 -15 -5
-28 -5 -13 -26 -76 -46 -139 -26 -83 -47 -129 -76 -167 -22 -29 -42 -59 -45
-66 -6 -17 21 -41 35 -32 7 3 8 0 5 -9 -10 -25 176 67 279 139 66 45 118 93
178 161 73 85 92 115 146 233 53 117 65 137 90 145 15 4 84 35 153 68 95 46
140 74 185 117 33 31 102 86 153 120 51 35 104 80 118 100 13 20 50 72 81 116
89 126 167 309 202 473 46 213 61 363 59 577 -1 105 -3 154 -5 110 -7 -190
-25 -416 -39 -485 -8 -41 -17 -86 -20 -100 -3 -13 -9 -27 -13 -30 -5 -3 -16
-40 -25 -83 -9 -43 -23 -88 -31 -100 -20 -29 -19 -8 4 50 10 26 22 68 26 93 4
25 11 50 15 55 9 12 15 45 36 185 20 132 28 458 15 610 -10 112 -10 111 -7
-70 4 -199 -6 -417 -24 -545 -18 -129 -82 -360 -105 -378 -6 -5 -4 -12 8 -21
15 -12 16 -16 3 -40 -12 -24 -14 -25 -20 -9 -7 17 -8 17 -22 -2 -26 -34 -65
-117 -59 -124 4 -3 11 2 16 12 6 9 14 17 20 17 12 0 -28 -44 -42 -46 -5 -1
-14 -2 -20 -3 -6 0 -8 -10 -4 -20 3 -11 1 -22 -4 -26 -7 -3 -8 0 -5 9 9 25 -6
19 -33 -11 -47 -55 -47 -54 -32 -65 11 -8 10 -9 -4 -4 -10 3 -28 1 -40 -6 -13
-6 -5 6 18 29 49 49 75 81 75 91 0 4 9 14 20 22 20 14 29 37 10 25 -6 -3 -7 1
-3 10 4 12 8 13 13 5 4 -7 10 0 13 18 3 16 12 36 19 43 25 25 65 123 83 199 9
41 21 85 26 98 12 30 12 85 0 77 -5 -3 -15 -22 -21 -43 -6 -20 -15 -46 -20
-57 -5 -11 -16 -45 -26 -75 -9 -30 -25 -67 -35 -82 -11 -14 -19 -29 -19 -33 0
-24 -112 -183 -178 -251 -75 -79 -224 -198 -269 -215 -13 -5 -44 -19 -71 -31
-26 -12 -49 -23 -52 -23 -3 -1 -24 -7 -46 -13 -23 -7 -62 -16 -85 -21 -24 -6
-64 -15 -89 -21 -53 -14 -244 -20 -280 -9 -16 4 11 8 70 8 81 1 110 6 201 37
59 20 117 45 128 55 12 11 21 16 21 12 0 -4 4 -3 8 2 4 6 32 27 62 47 67 44
244 225 310 318 46 64 60 100 40 100 -5 0 -10 -9 -10 -19 0 -10 -6 -21 -14
-24 -8 -3 7 36 35 92 56 113 105 291 115 415 7 85 1 96 -16 30 l-10 -39 5 40
c20 178 26 322 28 639 1 201 6 366 11 366 4 0 1 11 -8 24 -9 14 -12 27 -7 30
4 3 7 18 5 33 -2 16 -7 154 -10 308 l-7 280 27 24 c33 31 33 58 1 101 -23 32
-33 79 -19 93 4 4 31 -18 61 -48 55 -55 73 -61 73 -25 0 10 5 22 11 26 6 3 8
17 4 31 -5 23 -4 25 20 19 20 -5 25 -3 25 12 0 10 -11 25 -25 32 -14 8 -22 16
-18 19 5 3 8 20 9 36 0 17 3 82 7 145 20 364 57 500 182 669 24 32 61 91 83
129 81 142 126 189 207 211 67 18 79 15 114 -35 17 -25 45 -51 62 -57 16 -6
29 -15 29 -19 0 -5 -11 -54 -24 -111 -34 -143 -53 -268 -66 -442 -6 -82 -13
-160 -14 -172 -9 -65 16 -316 43 -432 54 -232 169 -571 271 -796 l32 -69 13
37 c32 94 152 206 255 238 64 19 71 18 87 -19 7 -15 32 -38 59 -52 60 -32 78
-70 60 -123 -7 -20 -15 -40 -19 -43 -4 -4 -7 -14 -7 -22 0 -7 -25 -41 -55 -75
-58 -64 -72 -111 -40 -137 8 -7 15 -16 15 -21 0 -4 11 -20 25 -34 21 -24 34
-67 40 -137 1 -10 4 -21 8 -24 4 -4 7 -20 7 -36 0 -18 5 -28 15 -28 11 0 15
-11 15 -42 0 -33 3 -39 11 -28 8 12 9 10 4 -7 -8 -31 3 -63 22 -63 8 0 26 -9
40 -20 14 -11 33 -20 42 -21 11 0 9 -3 -6 -9 -27 -11 -30 -30 -5 -30 31 0 72
-24 72 -43 0 -10 7 -20 15 -23 18 -7 20 -33 3 -36 -45 -5 -96 -4 -92 4 6 9
-74 46 -119 55 -15 3 -25 8 -23 11 8 7 -77 67 -91 64 -7 -2 -13 1 -13 7 0 5 6
12 13 15 6 3 2 3 -10 0 -15 -3 -23 -1 -23 7 0 13 -69 78 -82 79 -5 0 -8 5 -8
10 0 6 -9 20 -19 32 -18 19 -35 51 -94 178 -29 63 -49 130 -77 260 l-8 35 -2
-30 c-3 -25 -4 -23 -10 15 -4 25 -8 35 -8 23 -1 -12 -7 -25 -13 -29 -8 -4 -9
1 -5 17 6 22 6 22 -5 5 -20 -33 -14 -201 11 -276 51 -154 154 -291 295 -392
84 -60 194 -118 213 -112 12 4 14 3 4 -3 -10 -7 0 -15 35 -28 26 -10 53 -21
58 -26 6 -4 64 -24 130 -44 111 -33 261 -102 413 -189 35 -20 68 -36 73 -36 6
0 43 -30 82 -67 119 -111 146 -131 133 -98 -6 16 19 22 28 6 3 -4 51 -39 107
-77 l101 -69 -6 -74 c-3 -41 -11 -78 -17 -82 -18 -11 -116 -28 -220 -39 -52
-5 -116 -12 -143 -15 -49 -5 -96 -27 -96 -45 0 -5 12 -16 27 -24 l28 -14 -40
-11 c-22 -5 -65 -17 -95 -24 -185 -49 -226 -66 -274 -117 -25 -27 -62 -82 -81
-122 -35 -75 -67 -133 -99 -180 -10 -15 -14 -33 -10 -39 4 -7 3 -9 -3 -6 -13
8 -58 -87 -48 -104 5 -7 4 -10 -2 -6 -7 4 -17 -20 -27 -66 -26 -117 -25 -120
9 -128 29 -6 28 -7 -10 -9 -22 -1 -32 -4 -22 -7 18 -5 18 -5 0 -19 -17 -13
-17 -13 1 -14 15 0 16 -3 6 -15 -10 -12 -10 -15 1 -15 12 0 12 -2 0 -9 -11 -7
-11 -9 0 -14 12 -4 11 -7 -1 -16 -13 -10 -13 -12 0 -21 12 -8 13 -11 1 -19
-11 -7 -11 -10 0 -15 8 -3 4 -4 -8 -2 -15 3 -23 -1 -23 -10 0 -8 6 -11 15 -8
8 3 20 2 27 -2 9 -6 6 -10 -12 -15 l-25 -6 27 -8 c16 -4 36 -4 45 -1 15 6 15
8 3 16 -10 7 -11 10 -2 10 6 0 12 7 12 15 0 11 11 15 40 15 29 0 40 4 40 15 0
8 5 15 10 15 6 0 16 11 22 25 6 14 15 25 20 25 14 0 38 27 38 41 0 7 14 25 32
41 18 16 26 28 17 28 -8 0 -2 10 15 23 27 22 53 74 63 130 3 15 9 27 13 27 4
0 6 20 6 45 -1 29 4 49 13 54 8 5 9 10 3 12 -11 4 1 76 18 110 6 11 2 23 -11
36 -19 19 -19 19 4 18 13 0 46 -19 73 -42 72 -63 75 -52 4 18 -58 57 -61 61
-43 75 29 23 56 37 49 26 -3 -6 -2 -13 3 -17 6 -3 15 3 20 14 13 24 -4 33 -34
19 -19 -8 -19 -8 -2 5 20 16 25 13 -73 42 -43 13 -44 14 -12 14 18 1 51 -8 73
-19 22 -12 44 -18 48 -15 5 3 11 2 13 -3 4 -10 51 -43 99 -70 l36 -20 46 40
c49 41 58 58 31 58 -10 0 -14 6 -11 14 4 10 1 13 -7 10 -12 -5 -32 24 -23 33
7 7 52 -15 74 -36 12 -12 27 -21 32 -21 6 0 23 -17 38 -37 15 -20 39 -48 53
-63 39 -41 61 -70 52 -70 -4 0 2 -7 12 -15 11 -8 17 -15 13 -15 -3 0 5 -12 18
-26 14 -15 25 -33 25 -40 0 -8 3 -14 8 -14 4 0 13 -15 21 -33 8 -17 20 -39 27
-47 7 -8 16 -27 19 -43 4 -15 12 -31 19 -35 6 -4 17 -25 25 -47 7 -22 22 -58
32 -81 10 -22 23 -62 30 -90 6 -27 16 -53 20 -58 5 -6 9 -17 9 -25 1 -9 9 -34
20 -56 11 -22 19 -48 20 -57 0 -10 5 -18 10 -18 6 0 10 -6 8 -14 -2 -8 1 -15
7 -14 5 0 18 -19 30 -42 11 -24 25 -43 30 -43 6 0 18 -11 28 -24 28 -35 42
-28 70 34 23 51 24 60 12 79 -86 131 -190 353 -259 554 -77 222 -121 296 -275
463 -95 102 -100 137 -7 45 153 -152 219 -256 295 -463 61 -168 130 -312 219
-459 l66 -109 47 99 c25 55 54 124 64 153 13 40 21 52 34 47 9 -3 37 -12 64
-22 43 -15 51 -15 94 -1 26 9 48 15 49 14 27 -43 148 -274 146 -279 -1 -5 2
-8 8 -8 5 0 10 -5 10 -11 0 -17 46 -80 53 -72 4 3 7 0 7 -8 0 -12 2 -12 9 0 7
11 16 1 35 -38 28 -55 52 -73 67 -50 34 55 66 238 76 444 l7 150 17 -70 18
-70 -6 65 c-2 36 -11 83 -18 105 -33 96 -117 386 -113 390 2 3 19 0 37 -5 20
-5 42 -5 56 0 25 10 41 49 31 75 -5 13 0 15 31 9 28 -5 39 -3 49 10 12 16 21
16 146 -10 80 -16 176 -28 243 -30 l110 -4 -85 24 c-163 47 -188 54 -218 70
-17 9 -37 16 -44 16 -7 0 -25 6 -40 14 -14 8 -43 19 -65 26 -47 15 -106 42
-113 51 -3 3 -21 9 -40 13 -19 3 -46 12 -60 20 -14 7 -47 25 -74 40 -27 14
-56 26 -65 26 -9 0 -32 14 -51 31 -19 17 -47 36 -62 41 -17 6 -25 15 -21 24 3
8 -1 14 -7 14 -7 0 -31 18 -52 40 -22 22 -46 40 -54 40 -8 0 -15 3 -15 8 -1 4
-3 18 -4 32 -2 14 -19 42 -38 62 -34 37 -77 115 -77 143 0 8 -4 15 -10 15 -5
0 -10 6 -10 14 0 14 -73 86 -88 86 -12 0 -112 97 -112 109 0 6 -7 11 -15 11
-10 0 -15 10 -15 30 0 16 -5 29 -11 27 -5 -1 -18 21 -28 48 -12 35 -23 51 -38
53 -11 2 -25 14 -31 28 -7 13 -15 24 -20 24 -4 0 -9 43 -10 97 -2 53 -5 100
-8 104 -3 5 2 6 11 3 10 -4 14 -2 10 7 -2 8 9 29 25 48 24 28 32 32 44 22 10
-8 13 -23 9 -46 -8 -50 5 -125 23 -125 17 0 18 -12 2 -29 -11 -10 -10 -15 3
-24 11 -9 15 -22 11 -45 -6 -42 8 -41 47 5 17 20 31 31 31 25 0 -7 8 -12 18
-12 16 -1 16 -2 -2 -15 -18 -14 -16 -45 3 -45 20 0 24 53 9 101 -13 39 -13 47
-2 42 8 -3 15 -17 15 -32 2 -22 2 -23 6 -4 2 12 11 27 19 33 8 7 14 20 14 30
0 23 99 353 109 363 5 5 18 -29 30 -75 30 -111 43 -147 58 -160 10 -8 11 -3 5
23 -15 68 -7 280 12 343 18 58 18 60 0 74 -14 10 -15 16 -6 19 6 3 9 9 6 15
-4 6 -2 13 3 17 5 3 19 19 31 35 16 21 22 24 22 12 0 -13 6 -16 23 -11 16 4
14 1 -8 -11 -37 -21 -50 -35 -51 -56 -2 -23 24 -11 62 29 17 18 37 33 44 33 6
0 27 7 46 16 27 13 32 19 23 30 -6 8 -17 14 -23 14 -6 0 -42 30 -81 66 -38 36
-82 73 -97 83 l-28 18 26 13 c24 13 27 11 100 -64 47 -49 73 -83 70 -92 -4 -9
-1 -12 5 -8 6 3 20 -4 31 -16 17 -18 28 -21 59 -16 22 3 58 9 82 12 23 3 48
11 55 17 10 8 16 7 22 -3 6 -9 22 -11 57 -7 71 8 238 -9 308 -32 147 -47 197
-97 235 -233 22 -81 25 -172 6 -233 -11 -37 -12 -33 -8 49 7 140 -33 276 -81
276 -33 0 -44 11 -57 57 -17 56 -47 68 -175 68 -89 -1 -105 -3 -145 -26 -25
-14 -57 -30 -71 -35 -27 -9 -138 -102 -195 -163 -56 -60 -123 -184 -163 -301
-22 -63 -37 -119 -33 -125 3 -5 -7 1 -23 15 -23 21 -26 22 -17 5 33 -64 165
-161 269 -197 59 -20 86 -23 208 -22 160 1 215 15 314 81 85 57 135 113 164
184 33 82 39 101 42 119 1 8 10 40 20 70 9 30 23 84 29 120 8 42 17 64 25 62
9 -2 9 3 -2 18 -10 14 -12 33 -7 64 4 25 3 75 -2 113 -5 37 -10 80 -11 94 -2
20 -6 25 -22 21 -11 -3 -17 -2 -13 2 13 15 -15 66 -48 87 -19 11 -34 29 -34
39 0 14 -5 17 -21 13 -12 -3 -24 -2 -28 3 -21 30 -182 85 -189 64 -2 -5 -13
-10 -25 -10 -16 0 -18 3 -9 12 7 7 12 19 12 28 -1 13 -3 12 -14 -2 -19 -25
-30 -23 -67 17 -19 19 -37 35 -42 35 -5 0 -1 -7 7 -16 23 -22 20 -36 -6 -32
-15 2 -22 -2 -20 -10 1 -8 -2 -11 -7 -7 -6 3 -8 12 -4 20 3 8 0 15 -7 15 -6 0
-8 -4 -5 -10 13 -21 -8 -9 -27 15 -11 15 -30 25 -46 26 l-27 1 25 8 c21 7 16
8 -25 11 -45 2 -46 3 -12 6 41 5 48 21 17 41 -11 7 -20 17 -20 22 0 14 27 12
34 -2 3 -7 4 2 1 21 -2 22 -15 44 -35 62 -37 34 -41 35 -65 9 -14 -16 -21 -17
-32 -8 -12 9 -4 22 44 70 31 32 63 58 70 58 18 0 16 -30 -4 -52 -15 -17 -15
-20 5 -41 12 -13 22 -29 22 -35 0 -7 8 -12 18 -12 10 0 24 -6 31 -12 10 -11
11 -10 6 4 -8 22 20 52 40 44 27 -10 15 16 -24 53 -21 20 -43 45 -49 56 -21
41 33 115 84 115 12 0 43 -20 69 -45 32 -30 55 -44 71 -43 34 3 30 14 -22 61
-26 23 -50 53 -55 65 -14 36 14 85 56 101 39 14 56 8 99 -37 20 -22 26 -34 19
-46 -8 -14 -13 -12 -38 14 -40 42 -96 37 -95 -10 1 -19 73 -100 91 -100 7 0
34 18 60 40 l47 40 41 -15 c37 -13 57 -6 31 10 -6 4 -7 11 -4 17 4 6 2 8 -4 4
-12 -7 -172 140 -172 159 0 36 33 19 98 -50 38 -41 67 -76 65 -79 -3 -2 5 -7
17 -11 13 -4 19 -12 16 -21 -3 -8 -2 -13 3 -10 5 3 23 -9 39 -28 17 -19 33
-32 36 -29 3 4 6 2 6 -3 0 -5 17 -18 38 -29 20 -11 83 -51 140 -90 150 -101
168 -110 198 -95 34 19 31 58 -10 111 -43 56 -68 77 -86 71 -9 -3 -11 1 -6 13
5 14 2 16 -13 12 -14 -3 -18 -1 -14 10 3 7 2 13 -3 12 -24 -4 -36 2 -30 16 6
16 -51 62 -164 133 l-61 39 63 60 c35 34 87 82 115 108 29 26 51 51 48 55 -3
5 3 10 12 12 10 2 18 10 18 19 0 9 39 59 87 111 110 119 288 371 372 525 35
64 69 119 74 121 6 2 18 -31 28 -72 16 -69 19 -74 37 -64 21 11 17 -1 -11 -34
-8 -10 -11 -18 -5 -18 5 0 16 -19 23 -42 7 -24 21 -59 31 -78 10 -19 32 -84
49 -145 42 -145 67 -221 90 -270 19 -41 65 -203 76 -265 3 -19 12 -51 19 -70
7 -19 16 -59 20 -89 4 -30 14 -69 21 -87 8 -18 14 -46 14 -61 0 -15 6 -40 14
-54 12 -24 12 -29 -8 -50 -26 -29 -48 -77 -41 -89 3 -5 16 -5 30 0 15 6 27 6
30 -1 4 -5 1 -8 -7 -7 -8 2 -15 -16 -19 -57 -16 -136 -53 -206 -176 -331 -88
-91 -108 -114 -181 -212 -43 -58 -138 -239 -130 -248 3 -2 27 30 53 72 95 152
176 236 253 262 69 23 89 -15 68 -124 l-14 -69 -1 68 c-1 53 -5 71 -21 87 -18
18 -24 19 -43 8 -58 -32 -146 -160 -214 -313 -58 -131 -106 -274 -98 -299 7
-27 92 -96 163 -134 58 -30 148 -47 171 -32 10 6 13 42 13 146 0 77 5 147 10
158 7 13 7 16 -1 12 -15 -10 -14 -5 10 51 24 57 48 126 83 245 31 104 83 170
191 246 129 90 195 150 237 211 40 59 41 64 48 169 4 59 8 100 9 92 1 -8 19
28 40 80 20 52 62 138 93 190 37 62 67 131 88 200 51 166 57 194 52 254 -3 42
0 56 10 56 10 0 10 2 -1 9 -12 8 -12 12 -2 25 9 11 10 16 2 16 -6 0 -10 10 -9
23 2 46 -50 257 -64 257 -4 0 -10 17 -14 38 -3 20 -12 46 -19 57 -7 11 -24 52
-38 90 -36 100 -55 141 -158 352 -51 103 -105 206 -121 227 -21 29 -28 52 -30
90 -1 46 -2 47 -5 12 l-4 -39 -20 29 c-11 16 -24 38 -30 49 -5 11 -18 34 -29
50 -11 17 -23 38 -26 48 -4 9 -10 17 -15 17 -13 0 -11 -14 3 -28 6 -6 8 -15 4
-19 -4 -4 -11 -1 -16 6 -6 11 -9 10 -13 -5 -4 -16 -5 -17 -6 -1 0 9 -5 17 -11
17 -5 0 -10 9 -10 20 0 11 -6 23 -14 26 -8 3 -18 19 -21 36 -4 16 -9 27 -12
24 -7 -6 -47 47 -66 87 -7 15 -17 24 -22 20 -4 -5 -5 0 -2 9 4 11 2 15 -7 12
-7 -3 -16 3 -19 13 -12 34 -54 102 -61 96 -3 -3 -6 -1 -6 5 0 12 -19 38 -52
73 -9 9 -19 28 -22 41 -6 26 2 -111 13 -222 6 -71 10 -79 68 -161 70 -97 97
-141 180 -286 47 -82 62 -101 76 -97 18 6 18 5 1 -22 -10 -15 -41 -48 -68 -73
-103 -95 -108 -101 -98 -114 22 -26 185 -467 268 -722 20 -60 47 -141 60 -179
17 -50 20 -74 13 -88 -6 -11 -6 -24 0 -36 5 -10 14 -58 20 -107 6 -50 14 -110
17 -135 11 -72 -3 -42 -30 66 -25 98 -55 196 -81 264 -8 19 -17 53 -20 74 -5
28 -9 35 -15 26 -5 -8 -4 -22 1 -33 6 -10 9 -23 6 -30 -3 -11 -26 58 -86 258
-16 55 -39 134 -52 175 -12 41 -26 82 -31 90 -10 19 -88 253 -99 299 -5 21 -4
42 3 54 8 15 1 13 -28 -9 l-38 -29 18 27 c17 26 17 29 -5 95 -12 37 -26 73
-30 78 -13 18 -79 219 -79 242 0 32 23 29 38 -6 9 -21 19 -28 37 -27 14 0 25
6 25 13 0 17 -17 25 -23 11 -3 -9 -7 -7 -12 6 -5 11 -3 21 6 27 12 8 11 11 -3
20 -10 5 -18 21 -18 34 0 14 -4 25 -10 25 -5 0 -10 8 -10 18 -1 15 -2 15 -15
-3 -8 -11 -19 -26 -25 -32 -6 -7 -11 -16 -11 -20 -1 -5 -5 -18 -10 -31 -5 -13
-9 -38 -9 -55 0 -34 -57 -187 -73 -198 -6 -4 -7 -16 -4 -28 3 -12 2 -21 -3
-21 -4 0 -15 -19 -24 -42 -21 -55 -109 -201 -123 -205 -11 -4 15 79 30 93 4 4
7 14 7 22 0 7 8 26 18 40 29 42 112 286 139 407 45 208 42 479 -8 670 l-19 70
8 -70 c11 -103 4 -351 -12 -420 -15 -68 -110 -340 -124 -358 -6 -7 -22 -34
-38 -62 -15 -27 -35 -63 -45 -80 -10 -16 -28 -49 -40 -73 -13 -23 -31 -51 -41
-62 -10 -10 -18 -24 -18 -30 0 -5 -5 -10 -10 -10 -6 0 -9 -3 -9 -7 3 -20 -2
-34 -11 -28 -5 3 -10 1 -10 -5 0 -10 -8 -21 -40 -59 -8 -9 -34 -41 -57 -71
-23 -30 -50 -64 -60 -75 -36 -40 -78 -92 -93 -115 -8 -13 -34 -43 -57 -67 -24
-24 -43 -49 -43 -54 0 -6 -4 -8 -9 -5 -5 3 -16 -5 -25 -19 -9 -14 -37 -44 -63
-68 -26 -23 -83 -77 -126 -119 -44 -43 -84 -78 -88 -78 -5 0 -9 -5 -9 -11 0
-11 -24 -39 -34 -39 -2 0 -6 8 -9 18 -2 9 -3 4 -3 -13 1 -22 -4 -30 -19 -33
-17 -4 -18 -2 -6 12 10 12 11 20 4 27 -8 8 -13 5 -18 -10 -3 -12 -11 -21 -17
-21 -5 0 -33 -20 -60 -45 -50 -45 -78 -56 -78 -32 0 7 5 18 12 25 9 9 8 12 -6
12 -10 0 -30 -12 -45 -27 -33 -32 -63 -58 -111 -94 -19 -15 -51 -41 -70 -58
-19 -17 -38 -31 -41 -31 -3 0 -17 -10 -30 -21 -13 -12 -46 -38 -74 -59 -27
-20 -58 -47 -68 -58 -11 -11 -24 -18 -31 -16 -7 3 -19 -2 -26 -11 -7 -8 -19
-15 -27 -15 -8 0 -11 -4 -8 -10 3 -5 0 -7 -8 -4 -8 3 -27 -6 -43 -21 -15 -14
-32 -24 -36 -23 -14 5 -5 23 9 20 7 -2 17 7 22 20 5 13 62 73 126 133 135 126
173 162 206 191 13 11 98 98 189 193 91 95 188 196 216 225 28 29 78 88 110
132 101 133 156 204 232 298 39 50 72 96 72 103 0 7 5 13 10 13 6 0 10 5 10
11 0 5 18 37 40 69 22 32 40 61 40 64 0 9 63 111 73 117 5 4 7 11 3 17 -3 6
-3 12 1 14 12 5 106 171 106 186 0 6 4 12 9 12 4 0 8 6 8 13 0 7 23 60 51 117
39 79 62 145 91 265 l40 160 -6 160 c-5 148 -27 289 -49 311 -12 12 -8 26 5
18 6 -4 4 3 -5 17 -9 13 -17 32 -17 42 0 10 -11 30 -25 45 -18 18 -24 34 -20
49 3 12 0 25 -8 30 -7 4 -18 19 -25 33 -43 83 -55 104 -65 115 -7 7 -27 31
-46 53 -19 23 -37 40 -40 37 -4 -2 -24 12 -46 31 -22 19 -42 34 -45 34 -3 0
-21 4 -41 9 -34 8 -36 7 -31 -13 4 -18 2 -18 -21 7 -15 15 -27 31 -27 35 0 7
-52 42 -62 42 -3 0 13 -19 35 -42 l39 -43 -1 -130 c-2 -104 -6 -142 -23 -188
-11 -32 -25 -60 -29 -63 -5 -3 -9 -18 -9 -33 0 -15 -4 -31 -8 -37 -5 -5 -14
-28 -21 -51 -6 -24 -16 -43 -21 -43 -6 0 -10 -5 -10 -11 0 -6 -14 -30 -31 -54
-18 -25 -32 -58 -33 -74 -1 -16 -3 -28 -5 -26 -7 8 -28 -21 -55 -75 -15 -30
-45 -80 -67 -110 -21 -30 -39 -61 -39 -69 0 -17 -38 -81 -60 -101 -9 -8 -20
-27 -24 -42 -3 -16 -11 -28 -16 -28 -6 0 -10 -6 -10 -13 0 -8 -11 -27 -25 -43
-14 -16 -28 -39 -31 -51 -4 -13 -10 -23 -14 -23 -5 0 -12 -9 -15 -21 -4 -12
-12 -18 -21 -15 -10 4 -14 -2 -14 -18 0 -14 -10 -30 -25 -40 -14 -9 -25 -26
-25 -37 0 -12 -11 -30 -25 -40 -14 -12 -22 -26 -18 -35 3 -9 0 -14 -7 -12 -6
2 -20 -12 -29 -29 -10 -18 -21 -30 -24 -27 -3 3 -3 -4 0 -17 5 -17 3 -21 -9
-17 -10 4 -21 -5 -33 -25 -10 -18 -29 -45 -42 -60 -13 -16 -20 -34 -17 -39 4
-7 2 -8 -4 -4 -7 4 -16 -2 -21 -16 -5 -13 -16 -30 -26 -38 -9 -7 -32 -38 -52
-68 -20 -29 -42 -56 -50 -59 -7 -3 -13 -11 -13 -17 0 -12 -32 -54 -82 -109
-16 -16 -28 -32 -28 -36 0 -4 -30 -38 -67 -76 -37 -39 -68 -72 -68 -75 0 -3
-6 -5 -14 -5 -8 0 -15 -7 -16 -16 -4 -25 -39 -73 -43 -60 -6 19 -32 12 -32 -9
0 -13 -7 -20 -20 -20 -13 0 -20 -7 -20 -19 0 -10 -12 -27 -27 -37 -33 -21
-126 -113 -141 -140 -11 -18 -11 -18 -12 0 0 10 22 48 48 85 63 87 65 90 48
87 -8 -1 -27 -17 -44 -36 -16 -19 -44 -52 -62 -72 -18 -21 -38 -38 -46 -38 -8
0 -14 -6 -14 -12 0 -7 -23 -34 -52 -60 -52 -48 -65 -58 -52 -36 5 7 3 8 -6 3
-10 -6 -5 -15 18 -36 18 -16 32 -33 32 -39 0 -6 6 -13 14 -16 8 -3 17 -13 21
-22 7 -18 -99 76 -109 97 -4 8 2 20 15 29 39 27 176 180 257 287 4 6 37 47 72
91 127 160 285 374 375 509 22 33 43 61 48 63 4 2 7 8 7 14 0 6 14 27 30 48
17 21 30 45 30 54 0 9 4 16 8 16 5 0 15 12 22 28 8 15 23 37 33 49 11 12 16
26 12 32 -3 6 1 11 9 11 9 0 16 9 16 20 0 11 5 20 10 20 6 0 10 9 10 19 0 11
3 21 8 23 13 6 52 67 52 83 0 8 4 15 9 15 9 0 73 92 104 150 11 19 25 42 31
50 7 8 21 33 31 55 11 22 23 42 28 43 4 2 7 12 7 23 0 11 7 22 15 25 8 4 15
12 15 19 0 17 33 75 43 75 4 0 7 7 7 15 0 14 26 63 40 75 3 3 14 26 24 53 10
26 21 47 26 47 5 0 12 15 15 33 4 17 10 34 14 37 3 3 19 30 35 60 16 30 33 57
37 60 3 3 15 28 24 55 29 80 51 137 69 179 10 21 21 80 25 129 6 81 5 93 -11
109 -25 25 -12 45 14 21 20 -17 20 -17 17 2 -3 14 -12 20 -29 20 -14 0 -28 4
-31 8 -3 5 -39 10 -80 13 -56 3 -84 0 -114 -13z m118 -198 c-4 -11 -7 -28 -7
-37 0 -10 -6 -18 -13 -18 -7 0 -13 -5 -13 -10 0 -6 -11 -16 -25 -22 -25 -11
-35 -38 -14 -38 7 0 8 -12 4 -32 -5 -25 -4 -29 4 -18 10 13 12 13 21 0 21 -33
-2 -91 -68 -166 -23 -27 -63 -75 -88 -106 -25 -32 -49 -58 -54 -58 -5 0 -21
-25 -35 -55 -15 -30 -31 -52 -36 -50 -4 3 -13 -5 -20 -17 -7 -13 -36 -53 -66
-90 -29 -37 -53 -70 -53 -73 0 -5 -55 -80 -90 -122 -6 -7 -10 -15 -10 -18 0
-4 -16 -23 -35 -43 -19 -20 -35 -41 -35 -46 0 -4 -13 -24 -30 -43 -16 -18 -30
-38 -30 -43 0 -6 -7 -10 -16 -10 -9 0 -14 -5 -12 -12 2 -6 -2 -19 -10 -27 -7
-9 -43 -59 -80 -111 -37 -52 -74 -102 -82 -111 -8 -10 -37 -48 -65 -85 -27
-37 -65 -83 -82 -102 -18 -19 -33 -39 -33 -44 0 -13 -41 -50 -48 -43 -4 3 -1
9 5 13 6 4 15 20 18 35 4 15 11 27 16 27 5 0 9 6 9 13 0 7 9 20 20 30 11 9 20
23 20 31 0 8 24 50 53 93 29 43 62 94 73 113 10 19 33 55 49 80 17 25 39 62
50 83 11 20 23 37 26 37 4 0 10 11 13 25 4 14 14 34 24 43 9 10 26 34 36 53
10 19 30 46 43 61 14 14 25 30 25 35 0 4 4 18 9 31 5 13 9 32 9 43 0 12 7 19
20 19 15 0 20 7 20 25 0 14 5 25 10 25 6 0 10 9 10 20 0 11 5 20 10 20 6 0 10
7 10 15 0 8 9 20 20 27 11 7 20 21 20 31 0 10 4 16 8 13 5 -3 18 14 30 37 36
68 57 100 91 137 17 19 31 39 31 45 0 6 9 17 20 25 11 8 20 20 20 27 0 6 9 18
20 26 11 8 18 16 15 19 -3 3 6 16 20 29 13 13 25 29 25 34 0 6 13 26 30 45 16
19 29 39 30 43 0 4 4 13 10 20 44 54 60 76 60 82 0 4 9 18 20 32 11 14 17 30
14 35 -3 5 2 8 12 6 14 -2 18 2 16 17 -2 18 0 17 17 -5 13 -16 18 -32 14 -45z
m364 -42 c32 -35 82 -126 87 -157 1 -8 7 -20 13 -27 10 -14 20 -48 48 -174 7
-33 14 -55 16 -50 6 28 14 -97 14 -236 0 -140 -2 -159 -19 -178 -14 -15 -17
-30 -13 -56 3 -19 1 -37 -4 -40 -5 -4 -9 -23 -9 -43 0 -29 -3 -34 -11 -22 -8
11 -9 4 -5 -27 4 -27 2 -43 -4 -43 -12 0 -38 -57 -82 -180 -17 -47 -35 -89
-39 -95 -5 -5 -9 -16 -9 -25 0 -22 -23 -70 -34 -70 -4 0 -5 8 -1 18 3 9 9 29
12 45 3 15 10 30 14 33 14 8 11 34 -3 34 -7 0 -21 -19 -32 -43 -10 -23 -22
-49 -27 -57 -5 -8 -15 -28 -24 -45 -8 -16 -26 -43 -40 -60 -23 -28 -24 -28
-25 -8 0 19 12 51 60 168 8 19 24 66 99 300 15 50 34 119 41 155 6 36 15 67
19 70 5 3 11 23 14 45 3 22 11 69 17 105 25 156 28 224 14 340 -8 63 -19 126
-25 139 -5 13 -7 33 -4 45 5 17 4 18 -4 6 -6 -8 -11 -12 -12 -7 -7 38 -20 67
-30 67 -6 0 -8 9 -4 19 4 14 -4 30 -26 53 l-31 33 18 -30 c13 -22 14 -27 2
-18 -8 7 -17 10 -20 7 -3 -2 -8 7 -10 21 -8 37 18 32 59 -12z m-20 -46 c12 5
14 1 8 -15 -4 -14 -2 -22 5 -22 6 0 9 -4 6 -8 -3 -5 0 -26 6 -48 8 -28 12 -34
17 -22 3 10 6 -26 7 -80 0 -53 1 -149 2 -212 1 -69 -2 -116 -8 -118 -6 -2 -10
-25 -10 -52 0 -30 -5 -52 -15 -60 -8 -7 -15 -21 -15 -32 0 -11 -5 -18 -12 -16
-15 5 -59 -75 -45 -83 10 -7 3 -38 -15 -76 -8 -16 -15 -20 -23 -13 -12 10 -25
-16 -60 -120 -10 -30 -31 -78 -47 -107 -15 -28 -28 -57 -28 -65 0 -7 -9 -24
-20 -38 -11 -14 -20 -31 -20 -38 0 -7 -6 -20 -14 -28 -8 -7 -16 -19 -19 -26
-2 -7 -8 -10 -13 -5 -7 7 3 47 31 112 7 17 27 73 45 125 19 52 42 113 53 135
11 22 26 60 33 85 7 25 29 90 49 145 41 112 57 174 29 115 -9 -19 -20 -44 -25
-55 -40 -100 -55 -135 -71 -163 -10 -18 -18 -37 -18 -42 0 -6 -9 -32 -21 -58
-44 -100 -49 -113 -49 -126 0 -8 -6 -19 -14 -25 -8 -7 -27 -42 -42 -79 -16
-37 -34 -73 -41 -80 -7 -7 -13 -20 -13 -29 0 -31 -128 -195 -146 -185 -11 6
-24 1 -24 -11 0 -22 -24 -67 -36 -67 -6 0 -19 -17 -30 -37 -10 -21 -21 -40
-24 -43 -7 -7 -53 -78 -79 -122 -13 -21 -27 -38 -32 -38 -5 0 -9 -7 -9 -16 0
-17 -40 -79 -112 -170 -26 -34 -48 -66 -48 -72 0 -5 -7 -12 -15 -16 -8 -3 -15
-14 -15 -25 0 -10 -7 -21 -15 -25 -8 -3 -15 -15 -15 -26 0 -11 -5 -20 -11 -20
-7 0 -18 -8 -26 -17 -11 -14 -16 -15 -20 -5 -4 10 -8 10 -19 1 -43 -35 -26 29
30 113 10 15 14 33 10 39 -4 7 -3 9 4 5 6 -3 24 21 43 61 18 38 37 71 43 75 6
4 7 10 4 14 -4 3 3 21 16 38 13 17 40 64 60 105 20 41 44 80 54 87 9 7 13 14
8 14 -4 0 3 15 18 34 14 19 26 39 26 45 0 6 15 27 34 47 19 21 37 52 41 72 4
20 15 42 26 50 11 8 19 25 19 43 0 17 6 32 15 35 8 4 24 27 36 53 11 25 34 60
51 78 16 17 27 36 24 42 -5 7 -1 8 10 4 13 -5 16 -3 11 9 -3 9 3 25 14 37 11
12 16 21 12 21 -4 0 -3 4 2 8 13 9 34 42 41 65 4 9 10 17 15 17 5 0 9 10 9 22
0 12 3 19 6 15 3 -3 22 26 41 64 19 38 38 69 42 69 4 0 27 39 51 87 25 48 53
97 63 107 9 11 15 28 11 38 -3 10 2 28 12 40 16 22 16 20 -2 -29 -5 -12 -4
-15 3 -8 6 6 20 43 33 83 12 39 26 72 32 72 5 0 7 8 3 19 -3 10 1 23 9 30 8 7
13 18 10 24 -5 14 21 155 30 164 3 4 6 -35 6 -85 0 -62 4 -92 11 -92 14 0 8
217 -6 240 -5 8 -10 28 -11 45 -1 16 0 22 3 13 3 -10 10 -15 20 -11z m-5372
-628 c50 -6 123 -18 164 -26 86 -18 367 -122 410 -152 16 -12 32 -21 36 -21 3
0 21 -11 39 -25 18 -14 38 -25 44 -25 7 0 12 -4 12 -8 0 -4 14 -16 30 -26 17
-9 28 -21 25 -27 -3 -5 1 -6 9 -3 9 4 18 -1 22 -10 3 -9 12 -16 20 -16 8 0 14
-4 14 -10 0 -5 9 -10 20 -10 13 0 18 -5 14 -15 -4 -9 0 -15 8 -15 8 0 25 -11
38 -25 13 -14 30 -25 37 -25 8 0 11 -4 8 -10 -3 -5 -2 -10 2 -10 5 0 26 -17
48 -38 22 -21 49 -44 60 -50 11 -6 15 -12 9 -12 -7 0 -47 25 -90 56 -44 31
-124 85 -179 119 -244 151 -233 146 -470 226 -49 17 -94 35 -100 39 -5 4 -32
11 -60 14 -88 9 -259 36 -295 46 -21 6 -59 6 -100 0 -36 -5 -121 -12 -189 -14
-68 -3 -127 -9 -130 -14 -3 -5 -19 -9 -36 -9 -16 0 -41 -4 -55 -8 -24 -6 -24
-6 -4 7 99 61 119 70 176 79 276 42 268 41 463 18z m269 -364 c83 -14 160 -25
172 -25 12 0 80 -18 151 -41 70 -22 162 -51 204 -64 42 -13 137 -52 212 -88
74 -35 150 -70 168 -76 19 -6 48 -23 64 -39 17 -15 71 -63 122 -106 86 -74
110 -102 99 -114 -3 -2 -17 5 -33 16 -60 42 -255 132 -318 147 -5 1 -17 5 -25
8 -42 16 -154 45 -161 41 -4 -2 -9 0 -11 5 -3 10 -123 43 -273 75 -44 10 -93
22 -110 27 -34 11 -145 32 -288 54 -76 12 -121 13 -208 5 -60 -5 -114 -12
-119 -15 -29 -18 1 -25 104 -25 94 0 144 -6 278 -36 90 -19 188 -40 218 -46
151 -28 607 -191 760 -271 36 -19 89 -46 118 -62 28 -15 52 -29 52 -31 0 -2
-24 6 -52 17 -29 12 -66 26 -83 32 -16 5 -39 13 -50 18 -92 35 -305 93 -400
109 -38 6 -81 13 -95 16 -23 4 -24 3 -7 -10 15 -12 1 -13 -110 -13 -138 1
-257 -7 -313 -22 -82 -22 -110 -33 -110 -41 0 -6 -8 -10 -17 -11 -15 0 -15 -2
2 -8 17 -7 15 -9 -15 -15 -19 -3 -42 -7 -50 -8 -8 -1 -24 -10 -35 -21 -20 -20
-20 -20 0 -14 87 26 207 47 220 39 6 -4 -6 -10 -25 -14 -84 -16 -174 -49 -186
-67 -8 -10 -34 -29 -59 -41 -25 -12 -45 -26 -45 -31 0 -5 -5 -9 -10 -9 -22 0
-86 -62 -150 -145 -30 -38 -57 -72 -61 -75 -13 -10 -39 -70 -64 -146 -15 -44
-34 -97 -44 -119 -13 -28 -22 -88 -30 -200 -6 -88 -13 -176 -15 -195 -1 -19
-4 51 -5 155 -1 196 7 248 55 362 21 47 16 54 -6 9 -11 -22 -20 -47 -20 -56 0
-8 -7 -25 -15 -37 -44 -62 -53 -429 -16 -643 13 -74 28 -143 33 -154 8 -14 7
-17 -3 -11 -9 6 -10 3 -5 -11 4 -10 10 -35 12 -54 3 -19 20 -129 39 -244 19
-114 35 -228 35 -251 0 -24 4 -55 10 -70 7 -19 7 -24 -2 -19 -12 8 -6 -72 8
-111 7 -18 6 -19 -10 -6 -14 12 -22 12 -37 3 -19 -12 -26 -4 -10 14 5 5 5 33
1 64 -28 187 -42 270 -64 366 -13 60 -27 127 -31 149 -6 33 -9 37 -15 20 l-9
-20 0 20 c-1 11 -4 31 -6 45 -5 22 -4 22 4 5 8 -17 10 -16 9 10 0 17 -4 44 -8
60 l-8 30 -1 -30 -2 -30 -14 32 c-7 18 -14 40 -13 50 0 10 -5 32 -10 50 -8 26
-8 31 4 26 8 -3 14 -14 14 -25 0 -14 5 -18 15 -14 8 3 18 0 22 -7 5 -7 19 -21
33 -32 25 -20 -44 61 -84 100 -12 11 -27 28 -35 38 -12 16 -12 18 0 15 17 -4
16 3 -11 132 -26 122 -29 173 -24 333 5 165 14 229 40 272 7 11 22 52 35 90
12 39 27 76 32 82 5 7 7 19 4 27 -3 8 5 27 19 43 36 41 38 45 54 83 8 19 20
40 27 45 7 6 20 28 28 50 l17 40 -31 -33 c-17 -18 -31 -36 -31 -39 0 -3 -9
-15 -19 -27 -11 -11 -31 -34 -45 -50 -21 -23 -26 -26 -26 -11 0 10 6 26 14 34
7 9 24 36 37 61 13 25 26 47 30 50 11 10 48 75 48 85 0 6 8 12 17 14 10 2 25
10 33 19 15 14 14 15 -9 8 -41 -13 -80 -19 -80 -12 0 7 38 46 45 46 7 0 17 9
91 78 31 28 50 52 43 52 -8 0 -54 -20 -102 -45 -49 -25 -90 -45 -93 -45 -2 0
-4 7 -4 15 0 8 5 15 10 15 6 0 10 4 10 9 0 5 -10 7 -22 4 -18 -4 -20 -2 -8 6
8 5 12 12 9 15 -7 7 -71 -23 -80 -37 -4 -5 -9 -5 -13 1 -4 6 5 19 19 28 14 9
25 21 25 28 0 8 -2 8 -8 0 -4 -6 -19 -14 -34 -18 -15 -3 -35 -19 -43 -34 -9
-15 -14 -18 -10 -8 5 16 3 17 -10 6 -9 -8 -13 -21 -10 -34 4 -14 3 -17 -3 -8
-7 10 -15 6 -35 -17 -16 -19 -27 -26 -30 -18 -4 12 -117 -154 -117 -172 0 -6
-5 -22 -12 -36 -8 -19 -14 -22 -20 -13 -5 8 -6 3 -3 -12 4 -19 0 -31 -15 -45
l-21 -19 7 44 c5 29 4 41 -3 37 -6 -4 -14 -27 -17 -52 -4 -25 -13 -45 -19 -45
-15 0 -47 -107 -47 -158 0 -48 -10 -60 -26 -31 -11 21 -12 20 -18 -14 -4 -20
-12 -39 -18 -43 -17 -11 -4 232 15 281 9 22 30 85 47 140 27 89 83 194 115
217 5 4 6 8 2 8 -8 0 40 69 56 81 5 3 8 9 7 13 -3 14 56 96 73 101 9 4 17 11
17 16 0 5 6 9 13 9 7 0 23 9 35 21 12 11 27 17 32 14 6 -4 9 -2 8 3 -3 10 70
69 141 112 39 24 66 31 181 45 74 9 160 20 190 24 30 5 66 7 80 5 14 -3 92
-16 174 -29z m5606 -725 c8 11 9 7 4 -15 -4 -16 -11 -34 -15 -39 -5 -6 -9 -20
-9 -33 0 -14 -6 -23 -15 -23 -8 0 -15 -4 -15 -10 0 -5 -3 -9 -7 -9 -22 4 -25
-2 -8 -15 17 -12 18 -15 3 -30 -9 -8 -19 -21 -21 -28 -4 -10 -7 -10 -15 0 -7
11 -10 11 -16 -3 -3 -9 -11 -13 -18 -9 -8 5 -9 0 -6 -14 4 -12 2 -20 -3 -16
-5 3 -9 -4 -9 -15 0 -25 -20 -71 -32 -71 -4 0 -8 -7 -8 -15 0 -9 -7 -18 -15
-21 -8 -4 -15 -12 -15 -19 0 -18 -32 -78 -47 -87 -6 -5 -24 -28 -40 -53 -15
-25 -31 -45 -35 -45 -5 0 -8 -7 -8 -15 0 -8 -4 -15 -10 -15 -5 0 -10 -9 -10
-20 0 -11 -4 -20 -9 -20 -5 0 -28 -25 -52 -56 -24 -31 -56 -70 -71 -86 -16
-17 -28 -34 -28 -39 0 -5 -7 -9 -15 -9 -8 0 -15 3 -15 6 0 8 50 74 78 104 13
13 31 38 39 55 15 29 61 95 74 105 3 3 12 16 19 30 12 23 24 38 70 89 9 9 23
32 32 51 9 20 28 52 42 73 14 21 26 41 26 45 0 5 19 39 43 77 23 39 53 91 66
117 19 38 27 46 38 37 10 -9 13 -7 13 10 0 11 -5 21 -11 21 -5 0 -7 5 -3 11 4
8 9 7 15 -2 8 -12 11 -11 19 1z m625 -43 c11 -17 22 -39 25 -47 3 -8 18 -41
33 -72 14 -32 33 -72 42 -90 8 -18 19 -40 24 -48 5 -8 19 -40 32 -70 13 -30
29 -63 37 -72 13 -15 13 -20 1 -35 -12 -15 -12 -16 3 -10 12 4 15 2 11 -9 -3
-7 -9 -14 -14 -14 -11 0 -12 -54 -1 -64 8 -8 9 -13 11 -53 1 -22 3 -25 11 -13
8 12 10 9 10 -12 0 -42 -19 -33 -26 12 -4 22 -10 40 -14 40 -4 0 -24 33 -44
73 -21 39 -41 79 -46 87 -5 8 -18 32 -31 53 -16 29 -24 35 -30 25 -13 -21 -39
2 -59 52 -10 25 -19 38 -22 29 -7 -22 -36 6 -40 39 -2 17 -9 27 -18 26 -11 -1
-15 10 -15 47 1 39 -2 46 -13 37 -11 -9 -11 -13 0 -20 10 -8 10 -9 -1 -6 -8 3
-16 9 -18 14 -3 10 111 134 124 134 4 0 17 -15 28 -33z m-6146 -466 c-8 -10
-33 -43 -56 -74 -23 -30 -45 -68 -49 -83 -4 -16 -16 -51 -27 -77 -11 -26 -17
-51 -13 -54 3 -4 20 6 36 22 36 34 36 34 9 -41 -11 -32 -23 -75 -25 -94 -5
-33 -4 -34 10 -15 15 20 15 20 16 -3 0 -13 -5 -43 -11 -68 -8 -31 -8 -49 -2
-55 7 -7 9 -2 5 17 -3 17 -1 25 5 21 6 -4 13 13 17 44 6 46 83 216 93 205 2
-2 0 -12 -5 -23 -47 -89 -65 -147 -87 -277 -23 -136 -24 -154 -14 -292 11
-143 11 -146 -10 -160 -31 -22 -24 -109 8 -90 6 4 10 4 9 -1 -1 -4 3 -17 9
-28 5 -11 13 -56 17 -100 l7 -80 -23 29 c-13 16 -29 34 -36 40 -36 30 -92 88
-92 95 0 4 12 13 26 19 14 7 22 17 19 22 -9 15 -25 12 -25 -5 0 -8 -6 -15 -12
-15 -18 0 -88 -63 -88 -78 0 -17 25 -15 39 2 13 15 74 19 65 5 -2 -4 26 -39
62 -76 87 -88 78 -21 105 -768 6 -170 9 -391 7 -490 -3 -162 -4 -151 -7 105
-5 325 -7 322 -21 -30 -8 -211 -44 -586 -64 -675 -24 -104 -60 -241 -66 -245
-4 -3 -10 -12 -14 -20 -3 -8 -4 8 -2 35 l5 50 -14 -35 c-7 -19 -14 -28 -14
-19 -1 9 -12 19 -24 21 -21 4 -26 -2 -42 -51 -23 -71 -30 -78 -51 -56 -21 20
-21 23 1 235 32 310 35 384 18 394 -14 7 -15 47 -9 350 4 187 9 367 12 398 11
123 12 283 2 296 -8 9 -4 12 14 12 14 0 39 13 57 30 47 45 42 77 -20 146 -35
39 -48 61 -44 72 4 10 8 28 9 42 1 19 7 26 26 28 48 5 71 13 65 22 -3 5 7 11
22 13 16 2 -6 5 -48 6 -58 1 -80 5 -90 18 -12 15 -12 16 3 10 9 -3 19 -1 21 6
6 18 -4 48 -14 41 -5 -3 -9 4 -9 15 0 27 8 26 41 -5 25 -23 49 -26 49 -5 0 17
-74 81 -94 81 -20 0 -20 0 0 15 14 11 15 14 4 15 -13 0 -13 1 0 10 8 5 11 10
5 10 -5 0 -11 10 -11 23 -2 22 -25 280 -46 510 -8 95 -8 137 0 160 6 18 14 63
18 102 5 56 9 65 16 46 4 -13 5 -44 0 -70 -4 -25 -5 -57 -1 -71 4 -14 7 -20 8
-14 8 91 35 214 56 258 27 57 52 76 41 31 -4 -14 -2 -25 4 -25 5 0 10 9 10 19
0 10 6 21 13 24 6 2 25 30 41 61 16 31 32 56 36 56 4 0 32 22 61 50 55 50 83
66 58 31z m4677 -648 c4 -10 19 -47 35 -82 16 -34 26 -67 23 -72 -10 -17 25
-39 123 -79 91 -37 120 -60 82 -68 -13 -2 -121 41 -189 76 -8 5 -38 54 -65
109 -39 77 -48 104 -40 117 13 21 24 20 31 -1z m-547 -613 c13 -12 21 -26 17
-35 -7 -19 -20 -19 -36 0 -17 21 -43 19 -64 -4 -17 -18 -16 -21 6 -55 28 -43
41 -47 137 -40 l76 6 41 -43 c81 -85 63 -123 -20 -44 -41 39 -52 45 -79 41
-108 -17 -112 -17 -146 20 -18 18 -36 34 -41 34 -4 0 -13 13 -20 30 -11 26
-10 34 6 57 36 57 80 68 123 33z m-4049 -30 c25 -22 54 -41 65 -41 17 -1 17
-2 3 -6 -15 -4 -17 -13 -12 -61 11 -125 21 -335 17 -353 -3 -10 0 -85 6 -166
12 -155 16 -233 26 -423 3 -63 7 -155 10 -205 11 -207 14 -423 6 -460 -6 -27
-9 13 -10 130 -2 260 -37 843 -61 1005 -5 36 -12 128 -17 205 -4 77 -9 130
-11 118 -2 -12 2 -95 8 -185 7 -90 13 -237 15 -328 3 -179 2 -176 -34 185 -32
326 -42 399 -53 412 -8 10 -6 13 5 13 30 0 28 32 -3 71 -17 21 -24 36 -17 33
16 -6 20 64 4 84 -21 26 10 10 53 -28z m3676 -349 c39 -38 82 -101 69 -101
-10 0 -80 47 -94 64 -18 21 -26 20 -51 -6 l-20 -22 28 -30 c38 -40 62 -77 62
-94 0 -17 -30 -1 -81 45 -21 19 -39 31 -39 26 0 -5 14 -21 30 -35 l31 -27 -21
-40 c-11 -23 -17 -41 -13 -41 5 0 3 -4 -3 -8 -7 -4 -14 -25 -16 -48 -3 -23 -8
-46 -12 -53 -9 -14 -58 -200 -59 -223 -1 -10 -4 -18 -8 -18 -3 0 -12 -33 -20
-74 -12 -72 -29 -93 -29 -37 0 15 -4 31 -9 37 -9 10 -21 171 -14 192 3 6 9 10
14 6 5 -3 8 -2 7 3 -4 11 44 68 63 76 11 4 10 6 -3 6 -9 1 -21 -5 -25 -12 -4
-7 -26 -26 -47 -43 l-40 -29 26 39 c15 21 24 44 22 51 -3 7 2 29 10 50 9 21
16 47 16 58 0 11 20 59 44 106 32 62 42 91 35 102 -6 12 2 27 32 58 45 46 83
53 115 22z m543 -321 c92 -47 56 -159 -56 -176 -105 -16 -176 78 -114 150 40
46 110 57 170 26z m-973 -200 c8 -7 14 -23 14 -36 0 -17 4 -22 15 -18 32 13
11 -14 -83 -106 -124 -120 -149 -140 -89 -69 26 31 44 59 41 62 -3 3 -1 14 6
24 9 16 10 15 4 -7 -6 -24 -5 -24 11 -8 17 16 17 18 2 42 -10 14 -17 31 -17
38 0 9 3 9 10 -2 8 -13 10 -12 10 3 0 9 -4 17 -10 17 -24 0 -8 29 18 32 20 2
28 9 30 28 5 41 15 59 19 33 2 -12 11 -27 19 -33z m-4232 -227 c-3 -16 1 -36
8 -46 10 -14 12 -44 6 -139 -9 -136 -4 -170 7 -52 4 43 12 83 19 89 14 14 12
-66 -5 -204 -16 -135 4 -113 30 32 13 72 25 136 28 140 3 5 16 -17 29 -50 17
-42 24 -77 24 -130 0 -74 7 -106 20 -98 19 12 19 -108 -1 -245 -11 -80 -26
-196 -34 -257 -8 -62 -21 -152 -31 -200 -9 -49 -18 -101 -20 -117 -2 -16 -13
-45 -25 -64 -11 -19 -18 -41 -15 -47 10 -27 -8 -23 -52 10 -25 19 -48 35 -53
35 -4 0 -7 -44 -6 -97 1 -93 -5 -180 -19 -283 -10 -70 -195 -425 -261 -500 -7
-8 -41 -51 -75 -95 -79 -101 -334 -359 -343 -345 -3 5 -1 10 5 10 6 0 8 5 5
10 -3 6 -1 10 4 10 6 0 10 3 9 8 -5 17 73 133 180 267 25 31 72 104 74 116 2
7 13 22 25 32 12 10 20 24 16 32 -3 9 1 15 11 15 9 0 16 5 16 10 0 6 -5 10
-11 10 -8 0 -8 5 1 15 7 8 16 13 20 10 4 -3 8 1 7 8 -1 32 4 48 14 42 6 -4 9
-1 8 6 -2 8 11 45 29 82 18 38 32 70 32 73 0 2 14 34 31 71 17 38 37 82 44 98
11 25 65 187 106 315 6 19 17 49 24 65 27 67 36 106 50 213 l4 37 -14 -35 -13
-35 -1 33 c-1 17 -6 32 -11 32 -11 0 -11 18 10 335 5 83 15 231 21 330 6 99
13 183 15 187 3 4 7 47 9 95 3 48 9 89 15 91 5 2 10 19 10 37 0 39 8 65 21 65
5 0 6 -12 3 -27z m4710 -1220 c-4 -16 -25 -82 -46 -148 -25 -77 -41 -148 -45
-198 -3 -43 -10 -80 -14 -83 -5 -3 -9 -14 -9 -24 0 -41 -35 -133 -52 -138 -10
-2 -18 -11 -18 -19 0 -9 -6 -13 -15 -10 -12 5 -12 1 -4 -21 10 -27 10 -27 -21
5 -16 18 -30 35 -30 38 0 5 -44 79 -113 189 -9 13 -9 20 -1 23 6 2 9 15 6 28
-5 29 13 56 32 49 7 -3 26 6 42 19 16 13 41 27 57 31 15 3 36 15 47 26 11 11
23 20 28 20 4 0 18 18 32 40 14 22 28 40 32 40 5 0 8 9 8 21 0 13 4 18 11 13
9 -5 10 1 5 20 -4 18 -3 25 4 21 5 -3 10 -1 10 5 0 26 30 80 45 80 12 0 14 -6
9 -27z m-4720 -194 c-2 -3 10 -20 26 -38 17 -18 30 -36 30 -41 0 -5 9 -14 20
-20 10 -6 36 -26 57 -45 21 -19 41 -35 44 -35 3 0 22 -13 42 -28 25 -20 57
-32 109 -42 40 -7 93 -19 118 -26 42 -13 38 -13 -70 -8 -63 2 -124 7 -135 10
-23 7 -114 81 -165 134 -20 20 -50 65 -68 98 -18 34 -40 62 -48 62 -8 0 -14 7
-14 16 0 12 6 11 29 -8 15 -13 27 -26 25 -29z m5029 -132 c54 -111 61 -155 54
-361 -5 -181 -24 -312 -54 -387 -16 -42 -27 -48 -41 -23 -6 11 -3 33 10 66 10
28 25 82 34 121 16 77 35 363 27 412 -19 125 -58 214 -135 310 -38 49 -38 48
15 -8 32 -33 70 -89 90 -130z"/>
<path d="M9945 9800 c-116 -12 -285 -128 -285 -194 0 -10 11 -28 24 -41 23
-23 28 -24 148 -20 l123 4 44 47 c51 57 61 80 61 143 0 46 -13 72 -34 70 -6
-1 -42 -5 -81 -9z"/>
<path d="M13092 8625 c-73 -25 -147 -45 -164 -45 -24 0 15 -23 168 -101 296
-151 371 -205 431 -306 28 -49 41 -58 18 -13 -9 17 -13 30 -10 30 3 0 1 9 -5
19 -5 11 -26 71 -45 135 -50 164 -114 285 -166 311 -44 23 -84 18 -227 -30z"/>
<path d="M13600 8431 c-20 -39 -13 -49 33 -44 35 4 52 -2 102 -32 33 -20 93
-63 134 -96 92 -73 126 -78 46 -6 -197 176 -288 228 -315 178z"/>
<path d="M12800 8074 c-91 -19 -499 -97 -1090 -209 -278 -53 -584 -111 -680
-130 -96 -19 -438 -84 -760 -145 -322 -61 -641 -122 -709 -136 -68 -14 -129
-23 -135 -20 -6 2 -3 5 7 5 9 1 22 12 29 26 9 21 7 30 -13 60 -23 33 -39 45
-39 28 0 -5 9 -21 20 -38 19 -29 19 -29 -2 -52 -30 -33 -48 -29 -104 21 -65
59 -81 42 -21 -21 25 -26 45 -48 44 -50 -7 -6 -86 -10 -82 -4 8 14 -84 96 -95
85 -7 -7 3 -23 30 -48 22 -21 40 -41 40 -46 0 -4 -21 -11 -47 -16 -76 -13 -82
-12 -76 2 5 13 -9 19 -32 14 -5 -1 -7 2 -2 6 9 9 -31 54 -48 54 -6 0 -18 11
-25 25 -7 13 -17 22 -22 19 -4 -3 -1 -12 8 -21 8 -9 22 -26 30 -39 10 -14 21
-21 31 -17 12 5 15 2 10 -10 -3 -8 1 -21 9 -27 24 -21 16 -26 -58 -39 -104
-18 -118 -22 -113 -31 3 -4 -17 -11 -43 -15 -112 -16 -155 -37 -145 -74 5 -20
60 -31 164 -31 87 0 116 -9 121 -35 l5 -23 -41 19 c-23 10 -52 18 -66 18 l-25
-1 25 -7 c23 -7 23 -8 5 -13 -16 -4 -16 -5 3 -3 28 3 92 -60 92 -90 0 -23 -17
-45 -36 -45 -6 0 -27 13 -45 30 -19 16 -38 28 -43 27 -22 -7 -14 -26 24 -65
34 -36 37 -42 19 -42 -11 0 -17 -4 -14 -10 13 -21 -19 -9 -45 18 -30 31 -69
64 -90 77 -10 6 -12 4 -7 -9 4 -10 3 -15 -3 -11 -6 4 -17 0 -25 -9 -20 -19 -2
-31 25 -16 11 6 20 7 20 2 0 -5 17 -26 38 -47 22 -23 30 -36 18 -31 -10 3 -25
1 -34 -6 -8 -7 -17 -12 -18 -11 -2 1 -11 0 -20 -4 -10 -4 -30 8 -57 34 -53 51
-120 88 -87 48 7 -8 16 -12 21 -9 5 3 6 -1 4 -8 -3 -8 8 -27 25 -43 37 -35 37
-41 4 -49 -20 -5 -35 1 -72 32 -62 52 -83 44 -36 -13 22 -27 41 -42 50 -38 8
3 38 -18 74 -53 84 -81 163 -117 260 -118 66 -1 75 1 72 17 -2 10 3 17 13 17
9 0 14 -4 10 -9 -3 -5 -2 -12 3 -15 4 -2 8 6 8 19 0 13 -5 21 -10 18 -6 -3 2
6 18 21 16 14 37 26 46 26 23 0 88 33 90 45 1 6 4 12 7 15 4 3 3 -1 -1 -7 -9
-15 20 -18 29 -3 3 6 1 10 -4 10 -18 0 -12 14 10 28 15 10 24 11 32 3 8 -8 6
-11 -6 -11 -9 0 -17 -5 -17 -11 0 -7 8 -6 23 4 20 13 26 13 72 -11 28 -13 70
-39 95 -56 25 -17 119 -69 210 -117 91 -47 192 -101 225 -120 l60 -34 154 0
c94 0 156 4 158 10 2 6 -20 9 -54 8 -70 -3 -102 7 -58 17 17 4 49 8 73 9 26 1
41 5 37 11 -4 6 5 10 19 10 29 0 131 47 170 78 l26 20 -63 1 c-34 1 -78 2 -97
3 -19 0 -64 -7 -100 -16 -60 -16 -120 -17 -212 -2 -23 3 -36 16 -17 16 11 0
11 2 -1 10 -16 11 -11 11 210 15 149 3 215 21 290 82 66 53 94 73 105 73 6 0
24 13 39 29 17 18 34 27 44 24 10 -4 13 -2 8 5 -4 7 -1 12 8 12 9 0 16 5 16
10 0 6 7 10 15 10 8 0 15 5 15 10 0 6 3 9 8 9 19 -3 33 2 27 11 -5 9 6 12 31
9 4 0 13 13 22 30 8 17 18 28 23 25 5 -3 9 0 9 5 0 6 5 11 10 11 23 0 7 -38
-68 -158 -23 -37 -52 -79 -64 -92 -20 -22 -21 -23 -3 -16 11 5 58 21 105 37
47 15 81 29 75 29 -5 0 1 7 15 15 14 8 19 14 13 15 -24 0 -13 50 31 135 24 47
57 101 75 120 17 19 26 35 19 36 -7 0 -3 5 10 11 12 6 25 8 28 5 6 -6 -11 -64
-52 -182 -10 -27 -28 -67 -41 -87 -22 -37 -22 -38 -4 -38 34 0 72 22 66 38 -4
10 0 12 11 8 11 -4 15 -2 11 8 -3 8 1 17 9 20 9 3 12 10 9 16 -3 5 -1 10 4 10
6 0 11 6 11 13 0 19 96 147 105 139 5 -4 5 -2 2 4 -6 11 32 71 55 86 7 4 21 8
31 8 17 0 16 -5 -8 -47 -15 -27 -48 -85 -72 -130 -25 -46 -48 -83 -52 -83 -4
0 -27 -14 -51 -32 l-43 -32 48 -23 c27 -12 60 -20 74 -17 14 2 253 40 531 85
858 136 998 158 1215 194 384 62 469 76 568 90 54 8 101 16 105 19 4 2 32 7
62 10 133 16 612 96 630 106 11 6 20 15 20 20 0 6 -43 56 -95 112 -52 55 -95
105 -95 109 0 5 8 9 18 9 9 0 2 8 -18 17 -34 16 -144 122 -298 286 -64 67 -78
77 -108 77 l-34 0 6 -92 c5 -80 3 -98 -14 -127 -27 -49 -37 -48 -52 3 -14 53
0 47 -340 145 -113 32 -249 77 -304 100 -108 45 -104 45 -196 25z m-2057
-1030 c-20 -40 -25 -43 -235 -143 -155 -74 -223 -96 -270 -86 -39 9 -35 20 12
39 22 9 40 20 40 26 0 5 20 19 45 31 52 24 58 34 15 26 -19 -4 -34 -1 -45 9
-21 21 -19 31 10 50 14 9 25 23 25 30 0 8 13 22 30 33 16 10 28 20 25 23 -3 2
2 5 10 5 20 0 20 -86 0 -113 -22 -29 -18 -36 12 -17 15 10 31 18 37 18 15 1
68 23 86 35 8 6 34 19 58 30 24 11 58 31 76 45 18 14 40 25 49 25 10 0 17 6
18 13 0 6 5 0 11 -15 7 -22 6 -36 -9 -64z"/>
<path d="M6530 7813 c0 -7 -3 -12 -7 -12 -21 3 -21 -4 -2 -41 12 -22 25 -38
29 -35 5 3 6 -5 2 -17 -5 -21 -6 -21 -13 -2 -6 16 -8 15 -8 -8 -1 -15 4 -30 9
-33 15 -9 12 -25 -4 -19 -10 4 -13 -5 -10 -38 3 -40 3 -41 -5 -10 -5 18 -11
35 -13 37 -5 6 -1 -105 7 -157 3 -20 1 -39 -4 -43 -6 -3 -12 16 -14 42 -2 33
-4 27 -3 -19 0 -38 3 -68 6 -68 9 0 40 39 40 50 0 27 87 173 112 188 15 9 28
21 28 28 0 18 81 44 135 44 63 -1 113 -12 249 -56 135 -44 218 -87 258 -133
29 -33 30 -38 26 -103 -3 -37 -10 -74 -17 -82 -6 -7 -8 -22 -4 -31 4 -12 3
-16 -4 -12 -10 7 -30 -46 -25 -65 1 -5 -3 -8 -9 -8 -5 0 -7 -5 -3 -11 3 -6 -6
-24 -22 -40 l-28 -29 59 20 c52 18 102 39 237 99 27 12 34 19 26 28 -6 7 -16
13 -22 13 -6 1 -24 12 -41 26 l-30 26 32 -16 c46 -23 49 -20 14 13 -17 16 -31
36 -31 45 0 19 4 20 33 5 l22 -10 -21 18 -21 19 20 55 c11 29 24 57 29 60 36
23 -203 157 -349 196 -201 53 -643 106 -643 78 0 -5 -5 -3 -10 5 -6 10 -10 11
-10 3z"/>
<path d="M6429 7110 c-4 -8 -7 -19 -8 -25 -1 -5 -12 -20 -23 -33 -17 -17 -19
-25 -10 -34 7 -7 12 -16 12 -22 0 -5 -6 -1 -14 10 -14 18 -15 18 -21 1 -4 -9
-4 -29 0 -45 6 -25 5 -26 -8 -8 -13 17 -14 17 -20 2 -5 -11 -3 -15 5 -10 8 5
9 2 5 -10 -4 -9 -3 -15 2 -12 5 3 12 -4 16 -17 11 -32 16 -117 7 -117 -4 0
-17 -3 -29 -6 -18 -5 -22 -1 -26 23 -3 21 -4 18 -6 -14 0 -23 -4 -50 -7 -60
-5 -15 -4 -15 5 -3 7 10 11 11 11 3 0 -7 6 -13 13 -13 26 0 47 -36 47 -78 0
-35 3 -42 20 -42 13 0 18 -5 14 -15 -3 -8 -2 -20 2 -27 5 -7 7 -24 6 -38 -2
-20 -1 -22 8 -10 9 12 10 12 6 -5 -3 -11 -10 -51 -16 -88 -7 -43 -18 -77 -30
-90 -23 -24 -26 -39 -7 -31 17 6 56 83 62 121 3 15 14 57 26 93 12 36 23 71
25 78 7 23 21 12 21 -18 0 -16 -3 -27 -7 -25 -9 5 -52 -144 -45 -156 4 -5 2
-9 -3 -9 -6 0 -15 -14 -21 -32 -6 -18 -21 -42 -32 -54 -21 -22 -21 -23 -3 -48
20 -27 34 -33 34 -15 0 7 10 9 27 5 17 -5 29 -3 34 6 7 10 9 10 9 1 0 -19 75
-17 90 2 7 8 20 15 29 14 12 0 12 -2 -3 -8 -17 -6 -17 -8 -4 -14 10 -3 19 0
22 9 7 17 -3 44 -16 44 -5 0 -6 -4 -3 -10 3 -6 -4 -10 -16 -10 -21 0 -22 1 -4
20 20 23 17 24 -19 10 -26 -9 -38 3 -13 14 9 5 9 7 -1 12 -10 5 -10 9 0 21 15
19 19 71 6 79 -5 3 -1 12 9 20 17 14 17 15 -4 9 -24 -6 -33 10 -11 17 9 3 8 9
-5 22 -9 10 -17 22 -17 29 0 6 6 4 13 -5 6 -9 32 -18 56 -21 24 -3 47 -9 50
-14 17 -26 260 -61 301 -44 l25 10 -30 0 c-57 2 -105 14 -105 26 0 16 -22 25
-68 26 -33 1 -35 2 -12 9 21 7 22 8 5 9 -19 1 -64 34 -111 80 -12 12 -24 21
-27 21 -16 0 -117 113 -149 166 -56 91 -81 249 -47 291 8 10 9 14 2 10 -7 -5
-13 1 -15 15 -2 17 -5 19 -9 8z"/>
<path d="M6207 5900 c-14 -16 -33 -49 -43 -72 -81 -192 -217 -402 -282 -433
-31 -15 -35 -15 -75 7 -51 28 -55 43 -25 89 18 25 32 35 57 37 l33 3 -7 52
c-3 29 -8 72 -11 97 -6 53 -20 81 -31 64 -5 -6 -33 -41 -63 -77 -45 -54 -55
-72 -57 -109 -1 -23 -5 -93 -9 -154 -5 -95 -2 -130 20 -250 16 -86 41 -179 66
-244 22 -58 40 -110 40 -115 0 -10 -42 -38 -199 -130 -123 -72 -222 -140 -211
-143 6 -2 21 5 33 16 20 18 64 45 77 47 3 1 21 11 40 23 39 24 48 26 70 12 10
-6 11 -10 3 -10 -7 0 -13 -5 -13 -10 0 -6 8 -5 20 2 l20 13 -20 9 c-18 8 -28
26 -15 26 17 0 54 -34 48 -44 -4 -6 -8 -15 -9 -21 0 -5 -2 -15 -2 -22 -1 -6
-22 -19 -46 -29 -30 -13 -41 -22 -33 -27 8 -6 4 -7 -10 -4 -15 3 -23 -1 -26
-14 -3 -10 -16 -23 -30 -28 -14 -5 -28 -15 -32 -21 -3 -6 -21 -17 -38 -24
l-32 -13 34 -19 c92 -52 157 -103 229 -179 43 -46 84 -96 92 -112 8 -15 30
-45 49 -65 l35 -38 -28 0 c-21 0 -27 -4 -22 -15 3 -8 1 -15 -3 -15 -5 0 -5
-16 -1 -35 5 -22 29 -58 64 -96 36 -39 56 -69 56 -85 0 -13 4 -24 9 -24 5 0
12 -21 15 -47 12 -82 29 -157 40 -171 7 -10 6 -16 -3 -22 -14 -8 -6 -50 10
-50 5 0 9 -17 9 -37 0 -20 7 -45 17 -55 15 -17 15 -18 0 -18 -10 0 -17 7 -17
17 0 15 -1 15 -18 0 -10 -10 -28 -17 -40 -17 -12 0 -22 -5 -22 -11 0 -6 -11
-20 -25 -31 -14 -11 -25 -23 -25 -27 0 -4 62 -12 138 -19 172 -15 324 -42 597
-107 33 -7 105 -23 160 -35 114 -24 195 -47 345 -97 161 -54 170 -57 170 -65
0 -5 7 -8 16 -8 9 0 30 -6 47 -14 18 -8 70 -30 117 -49 97 -40 214 -89 280
-119 25 -11 54 -23 65 -28 51 -20 145 -67 193 -97 29 -18 56 -33 60 -33 4 0
25 -14 46 -30 22 -17 46 -30 54 -30 7 0 12 -6 10 -12 -3 -8 -29 -15 -61 -18
-30 -3 -58 -8 -62 -11 -3 -4 21 -34 54 -68 37 -36 61 -54 61 -44 0 13 3 13 16
2 14 -12 14 -14 -6 -21 -12 -4 -34 -5 -48 -2 -19 5 -24 3 -17 -4 6 -6 22 -13
35 -14 14 -2 27 -6 30 -9 7 -7 373 -135 430 -149 25 -6 79 -22 121 -35 102
-32 372 -82 484 -91 91 -6 304 10 334 27 9 4 33 16 54 25 30 13 37 21 34 36
-5 16 -3 17 9 7 8 -6 17 -9 21 -5 7 7 -66 86 -80 86 -4 0 -6 -4 -3 -9 8 -12
-28 -25 -173 -62 -122 -31 -126 -31 -238 -21 -77 8 -119 16 -129 27 -9 8 -29
15 -45 15 -16 0 -29 5 -29 10 0 6 -6 10 -14 10 -21 0 -102 38 -116 55 -7 8
-18 15 -24 14 -24 -3 -37 2 -31 11 3 6 -1 10 -10 10 -9 0 -13 4 -10 10 3 6 -1
7 -9 4 -10 -4 -18 1 -22 11 -4 9 -13 14 -21 11 -9 -4 -17 1 -20 14 -3 11 -10
20 -16 20 -6 0 -20 8 -31 17 -12 10 -9 4 7 -13 41 -45 37 -83 -15 -132 l-42
-40 -145 140 c-80 77 -148 145 -150 150 -2 5 13 27 34 48 l37 37 -28 7 c-16 4
-38 17 -50 30 -13 12 -45 28 -73 35 -28 7 -51 16 -51 20 0 4 -23 14 -50 21
-28 8 -58 22 -67 32 -9 10 -24 18 -33 18 -10 0 -29 9 -43 20 -14 11 -34 20
-45 20 -11 0 -25 7 -32 15 -7 8 -33 24 -58 35 -25 11 -52 29 -59 40 -8 11 -22
20 -32 20 -10 0 -26 9 -36 20 -13 14 -21 17 -25 9 -9 -13 -48 5 -67 31 -7 10
-29 21 -50 25 -37 7 -113 41 -123 55 -3 4 -16 11 -30 15 -14 4 -47 18 -74 31
-28 13 -57 24 -67 24 -9 0 -22 7 -29 15 -7 8 -23 15 -35 15 -25 0 -85 30 -85
43 0 4 -18 7 -40 7 -22 0 -40 4 -40 10 0 5 -18 13 -39 16 -22 3 -54 15 -71 26
-31 18 -32 21 -28 72 3 36 11 60 26 76 12 13 22 29 22 34 0 19 120 119 184
155 119 66 106 63 172 37 32 -13 79 -35 104 -50 25 -14 55 -30 67 -35 12 -6
55 -26 95 -44 40 -19 98 -42 128 -52 30 -10 111 -40 179 -66 68 -27 132 -49
142 -49 10 0 39 -11 66 -24 48 -25 61 -26 48 -7 -3 6 -17 11 -31 11 -13 0 -24
4 -24 9 0 4 -26 16 -57 26 -32 10 -81 31 -110 47 -28 15 -59 28 -70 29 -16 0
-16 1 2 9 17 7 17 9 3 9 -17 1 -139 59 -148 71 -3 3 -25 16 -49 28 -24 13 -49
28 -56 35 -7 7 -23 19 -35 27 -12 8 -28 20 -34 26 -7 7 -21 13 -31 15 -11 2
-22 15 -25 28 -3 13 -14 29 -25 35 -36 20 -77 56 -64 56 7 0 -2 13 -21 29 -19
16 -38 27 -41 25 -4 -2 -14 18 -23 46 -15 47 -15 51 4 82 39 64 49 95 43 131
-7 45 -3 50 88 133 78 72 97 87 238 194 47 36 86 72 86 80 0 8 4 21 9 28 13
21 187 162 220 179 44 22 98 75 85 84 -6 3 2 6 18 6 15 0 35 3 43 6 20 9 207
-140 480 -383 113 -100 304 -257 425 -348 421 -317 603 -486 728 -679 89 -137
92 -145 133 -276 31 -103 34 -123 35 -247 1 -133 1 -134 15 -85 7 28 14 68 15
90 2 40 2 40 9 -10 7 -48 7 -47 9 25 1 48 5 70 10 61 13 -20 19 15 10 57 -4
17 -3 34 1 37 8 5 16 65 26 195 5 57 2 84 -10 114 -9 21 -16 53 -16 70 -1 17
-7 42 -15 56 -8 14 -14 51 -15 83 0 31 -4 57 -10 57 -5 0 -10 9 -10 20 0 11
-7 23 -15 26 -8 4 -15 11 -15 16 0 6 -13 27 -28 47 -16 20 -32 44 -35 54 -6
15 -3 17 16 12 16 -5 18 -4 8 4 -13 8 -11 13 10 30 13 11 20 20 14 20 -5 0
-38 -26 -73 -59 -35 -33 -65 -60 -68 -60 -9 0 -3 9 31 46 19 22 35 42 35 47 0
11 -14 8 -29 -5 -11 -11 -13 -9 -9 7 3 11 0 26 -6 32 -6 6 -24 27 -41 47 -81
98 -192 212 -227 233 -14 9 -31 27 -37 40 -6 12 -17 23 -26 23 -8 0 -15 6 -15
13 0 6 -30 35 -66 62 -36 28 -72 56 -79 63 -8 6 -17 12 -20 12 -18 0 -66 44
-61 56 3 9 -2 14 -14 14 -21 0 -110 58 -110 72 0 4 -5 8 -11 8 -15 0 -39 26
-39 44 0 8 -10 18 -22 22 -24 7 -138 122 -138 139 0 6 -16 25 -35 44 -20 19
-34 41 -33 49 2 8 -12 30 -30 50 -25 26 -32 41 -28 58 4 14 2 24 -4 24 -5 0
-10 6 -10 14 0 8 -7 16 -15 20 -8 3 -15 12 -15 19 0 8 -7 20 -16 28 -9 7 -14
22 -11 36 2 13 0 23 -6 23 -6 0 -1 9 12 21 17 16 25 18 36 9 10 -9 21 -8 44 4
38 20 44 31 26 46 -14 12 -13 15 10 30 l26 17 -53 48 c-29 27 -84 78 -123 115
-38 36 -104 88 -145 115 -41 27 -78 53 -81 58 -4 5 -12 6 -19 2 -8 -5 -11 -4
-6 3 9 15 -44 74 -61 68 -8 -3 -12 -2 -9 2 2 4 -39 31 -92 60 -53 29 -104 57
-112 62 -8 5 -42 20 -75 32 -53 20 -60 27 -63 53 -4 29 -4 29 -19 -15 -21 -62
-93 -160 -146 -198 -25 -18 -48 -32 -52 -32 -4 0 -39 -15 -78 -34 -70 -33 -74
-34 -132 -24 -92 17 -334 14 -488 -6 -76 -9 -247 -40 -380 -67 -236 -48 -354
-60 -386 -40 -20 13 -29 166 -18 286 16 176 -4 305 -47 305 -8 0 -26 -13 -39
-30z"/>
<path d="M5043 4512 c-45 -48 -90 -97 -100 -108 -59 -71 -110 -130 -123 -144
-8 -8 -35 -40 -60 -70 -90 -111 -193 -207 -298 -279 -12 -8 -18 -19 -15 -25 4
-5 -1 -7 -10 -3 -11 4 -17 1 -17 -8 0 -8 -9 -15 -20 -15 -18 0 -19 -3 -10 -21
11 -19 10 -20 -12 -8 -22 12 -22 11 -8 -6 14 -17 14 -18 -10 -5 -24 13 -24 12
-10 -5 14 -17 13 -18 -12 -13 -17 3 -25 1 -21 -5 3 -6 -7 -21 -23 -34 -24 -19
-26 -23 -10 -23 11 0 17 -3 13 -6 -3 -4 -19 -2 -36 4 -26 9 -29 8 -24 -5 4
-11 2 -14 -5 -9 -6 4 -21 -3 -32 -14 -12 -12 -28 -19 -36 -16 -19 7 -64 -14
-64 -29 0 -7 9 -15 20 -18 11 -3 18 -1 15 4 -6 9 55 29 68 22 7 -4 10 -33 3
-33 -3 0 -16 4 -31 10 -14 5 -24 7 -21 2 2 -4 -2 -16 -10 -26 -13 -19 -14 -18
-35 8 -21 26 -21 26 -38 7 -9 -11 -26 -35 -36 -55 l-19 -35 30 -43 c16 -24 48
-52 72 -65 38 -19 41 -23 25 -33 -16 -10 -15 -10 4 -5 38 10 17 -18 -27 -38
-26 -12 -40 -25 -40 -38 0 -10 -4 -19 -10 -19 -5 0 -10 -14 -10 -30 0 -34 22
-49 45 -30 10 9 15 9 15 1 0 -6 -5 -11 -11 -11 -19 0 -1 -16 43 -37 41 -20 70
-28 188 -54 30 -6 81 -22 112 -35 72 -30 174 -37 270 -20 48 9 117 12 198 10
69 -3 140 -5 158 -4 17 0 111 -9 207 -20 198 -23 271 -25 281 -9 4 7 21 9 40
6 19 -3 32 -2 29 3 -3 5 6 17 20 26 14 9 25 25 25 36 0 16 5 19 20 14 65 -20
64 -20 57 -2 -4 9 -3 15 2 11 16 -9 41 6 41 26 0 18 -6 18 -107 11 -231 -15
-500 -4 -526 23 -7 6 -17 10 -24 8 -6 -2 -14 1 -18 6 -3 6 -11 11 -17 11 -6 0
-5 -7 3 -17 19 -23 -34 15 -82 59 -72 66 -99 88 -110 88 -5 0 -7 5 -4 10 3 6
2 10 -3 10 -4 0 -18 9 -31 21 -12 12 -25 19 -27 16 -6 -6 22 -39 109 -130 31
-33 56 -62 54 -63 -2 -2 -19 1 -38 6 -23 7 -50 7 -85 -1 -63 -14 -93 -7 -117
26 -15 21 -16 29 -7 40 17 21 25 19 65 -16 27 -24 39 -29 47 -21 14 14 -11 45
-56 73 -26 16 -33 16 -56 4 -33 -17 -38 -13 -89 59 -34 49 -41 67 -41 106 0
53 24 110 46 110 8 0 13 4 10 8 -7 11 46 62 82 79 15 7 19 11 9 8 -10 -3 -15
-1 -12 5 3 6 12 10 19 10 8 0 21 10 30 23 11 14 19 18 22 10 5 -12 31 7 91 65
13 12 28 22 33 22 11 0 90 114 90 130 0 7 9 23 20 37 11 14 17 29 14 34 -6 10
27 60 66 100 14 14 38 41 55 60 16 19 55 62 87 96 61 65 72 91 38 89 -12 -1
-46 -31 -83 -75 -34 -41 -105 -112 -157 -158 -117 -104 -113 -100 -129 -95 -8
3 -11 0 -7 -7 4 -6 1 -11 -9 -11 -8 0 -18 -6 -21 -14 -3 -8 -12 -12 -20 -9 -8
3 -14 2 -12 -3 1 -5 -22 -34 -52 -64 -30 -30 -65 -68 -76 -85 -20 -27 -24 -28
-40 -15 -17 14 -18 14 -5 -2 14 -18 4 -35 -51 -86 -10 -9 -18 -22 -18 -30 0
-7 -4 -11 -8 -8 -5 3 -16 -9 -26 -26 -15 -24 -21 -27 -28 -17 -8 11 -9 10 -5
-3 4 -11 -8 -28 -36 -51 -23 -19 -58 -49 -77 -66 -19 -17 -41 -31 -49 -31 -8
0 -11 -6 -7 -16 4 -11 2 -15 -8 -11 -8 3 -17 -2 -21 -11 -5 -13 -8 -14 -15 -3
-4 8 -15 11 -24 8 -10 -4 -21 1 -28 13 -7 11 -17 20 -23 20 -6 0 -12 12 -13
26 -1 21 18 45 94 122 53 54 113 117 133 141 20 25 78 89 130 143 51 54 116
126 143 161 26 34 53 67 58 74 6 7 10 15 10 19 0 4 7 12 15 18 8 6 16 22 17
36 2 14 5 27 8 30 3 3 13 18 23 33 10 15 23 25 29 21 6 -4 8 -3 4 4 -3 6 6 23
21 39 85 87 153 167 151 174 -2 4 -40 -31 -85 -79z m-599 -1202 c13 -36 27
-73 31 -82 6 -15 2 -18 -19 -18 -33 0 -96 26 -96 39 0 5 -10 13 -22 17 -13 4
-33 14 -46 22 -22 15 -22 15 35 44 32 16 62 33 68 39 16 16 25 5 49 -61z"/>
<path d="M10015 2615 c-11 -8 -45 -18 -75 -22 l-54 -8 -27 -73 c-22 -60 -24
-71 -10 -58 10 9 20 14 23 11 9 -9 121 25 170 52 33 18 47 31 43 41 -3 10 0
12 10 9 28 -11 25 12 -5 29 -16 10 -30 22 -30 26 0 12 -23 9 -45 -7z"/>
<path d="M0 600 l0 -600 7500 0 7500 0 0 600 0 600 -7500 0 -7500 0 0 -600z
m13610 230 c12 -12 20 -33 20 -55 0 -48 -29 -75 -80 -75 l-40 0 0 75 0 75 40
0 c27 0 47 -7 60 -20z m-13055 -40 c33 -36 27 -190 -7 -190 -6 0 -3 -9 8 -21
15 -17 19 -36 19 -100 0 -101 -10 -112 -105 -117 l-70 -4 0 225 0 226 43 3
c61 4 94 -2 112 -22z m120 -200 l0 -225 -22 -3 -23 -3 -1 163 c-1 90 -2 190
-4 223 -3 71 0 77 28 73 22 -3 22 -5 22 -228z m206 211 c19 -15 23 -28 24 -72
0 -49 -2 -54 -22 -57 -20 -3 -23 1 -23 35 0 51 -11 65 -46 61 l-29 -3 0 -175
0 -175 35 0 35 0 3 73 c3 68 2 72 -18 72 -16 0 -21 5 -18 23 3 19 9 22 43 22
l40 0 3 -98 c3 -93 2 -98 -23 -123 -23 -23 -33 -26 -76 -22 -28 3 -55 10 -62
17 -23 23 -36 314 -16 384 6 24 19 41 32 47 38 15 93 11 118 -9z m236 -7 c7
-10 13 -44 13 -76 0 -55 -1 -58 -24 -58 -23 0 -25 4 -28 53 -3 50 -4 52 -33
52 -29 0 -30 -1 -33 -55 l-2 -55 57 -45 58 -45 3 -82 c3 -78 2 -82 -25 -103
-22 -18 -37 -21 -72 -17 -56 6 -71 25 -72 94 -1 29 -2 59 -3 66 -1 6 11 13 26
15 27 3 27 2 30 -60 3 -63 3 -63 33 -63 30 0 30 0 33 62 l3 61 -43 30 c-64 44
-78 64 -84 118 -6 63 6 106 37 122 33 17 109 9 126 -14z m221 -1 c3 -20 -1
-23 -32 -23 l-36 0 0 -200 0 -200 -25 0 -25 0 0 200 0 200 -35 0 c-31 0 -35 3
-35 25 l0 26 93 -3 c87 -3 92 -4 95 -25z m182 7 c19 -19 20 -33 20 -209 l0
-190 -26 -20 c-38 -30 -98 -28 -129 4 -25 24 -25 26 -25 210 0 172 1 186 20
205 15 15 33 20 70 20 37 0 55 -5 70 -20z m220 0 c16 -16 20 -33 20 -80 0 -57
-1 -60 -24 -60 -23 0 -25 4 -28 53 l-3 52 -35 0 -35 0 -3 -164 c-3 -177 2
-194 47 -189 24 3 26 7 29 66 3 58 4 62 27 62 24 0 25 -2 25 -68 0 -87 -17
-107 -92 -107 -40 0 -53 5 -69 24 -17 21 -19 41 -19 201 0 164 2 179 21 204
17 22 28 26 70 26 36 0 54 -5 69 -20z m122 -82 l3 -103 40 103 c37 95 42 102
67 102 l28 0 -19 -47 c-10 -27 -31 -77 -45 -113 l-26 -65 44 -110 44 -110 -25
-3 c-31 -4 -34 0 -75 113 l-33 90 -3 -102 c-3 -102 -3 -103 -27 -103 l-25 0 0
225 0 225 25 0 c24 0 24 -1 27 -102z"/>
<path d="M1415 758 c-3 -8 -4 -88 -3 -178 l3 -165 35 0 35 0 0 175 0 175 -33
3 c-20 2 -34 -2 -37 -10z"/>
</g>
</svg>
